<?xml version="1.0" encoding="UTF-8" standalone="no"?>
<!-- Created with Inkscape (http://www.inkscape.org/) -->

<svg
   xmlns:dc="http://purl.org/dc/elements/1.1/"
   xmlns:cc="http://creativecommons.org/ns#"
   xmlns:rdf="http://www.w3.org/1999/02/22-rdf-syntax-ns#"
   xmlns:svg="http://www.w3.org/2000/svg"
   xmlns="http://www.w3.org/2000/svg"
   xmlns:sodipodi="http://sodipodi.sourceforge.net/DTD/sodipodi-0.dtd"
   xmlns:inkscape="http://www.inkscape.org/namespaces/inkscape"
   width="255px"
   height="255px"
   viewBox="0 0 255 255"
   version="1.1"
   id="SVGRoot"
   inkscape:version="0.92.4 (5da689c313, 2019-01-14)"
   sodipodi:docname="logo.svg">
  <defs
     id="defs10" />
  <sodipodi:namedview
     id="base"
     pagecolor="#ffffff"
     bordercolor="#666666"
     borderopacity="1.0"
     inkscape:pageopacity="0.0"
     inkscape:pageshadow="2"
     inkscape:zoom="1.4197595"
     inkscape:cx="127.5"
     inkscape:cy="127.5"
     inkscape:document-units="px"
     inkscape:current-layer="layer1"
     showgrid="false"
     inkscape:window-width="1920"
     inkscape:window-height="950"
     inkscape:window-x="2391"
     inkscape:window-y="460"
     inkscape:window-maximized="1"
     inkscape:grid-bbox="true" />
  <metadata
     id="metadata13">
    <rdf:RDF>
      <cc:Work
         rdf:about="">
        <dc:format>image/svg+xml</dc:format>
        <dc:type
           rdf:resource="http://purl.org/dc/dcmitype/StillImage" />
        <dc:title></dc:title>
      </cc:Work>
    </rdf:RDF>
  </metadata>
  <g
     inkscape:label="Layer 1"
     inkscape:groupmode="layer"
     id="layer1">
    <path
       style="opacity:1;fill:#008000;stroke-width:1.2121824"
       id="path23"
       d="m 34.676923,35.096078 c 2.674714,2.916244 4.605518,6.211109 6.256597,10.261991 1.549714,4.095163 2.342794,8.602273 2.94491,13.103352 0.719521,5.440325 0.362807,10.831359 -0.412966,16.205373 -0.785076,5.254617 -2.296274,10.166853 -4.053853,14.937533 -1.13194,2.908699 -2.441028,5.700111 -3.832943,8.393282 -0.919731,1.862951 -2.200552,3.232271 -3.553069,4.472621 -21.375917,16.83735 -5.712508,4.47633 -1.153569,0.97025 0.196703,-0.15127 -0.373228,0.3466 -0.555172,0.52868 -0.531355,0.53177 -1.051199,1.08487 -1.554901,1.6635 -1.072509,1.00416 -1.719833,2.37796 -2.214221,3.97241 -0.460861,1.39947 -0.965489,2.77106 -1.47275,4.14035 0,0 -9.922606,6.11747 -9.922606,6.11747 v 0 c 0.463489,-1.39285 1.024765,-2.71841 1.462045,-4.1263 0.622711,-1.60535 0.887778,-3.41762 2.015664,-4.60529 0.686581,-0.67713 1.377898,-1.71262 2.085121,-2.29006 3.163033,-2.58256 21.61278,-17.127646 1.157139,-0.97965 1.324673,-1.19823 2.754931,-2.26877 3.730877,-4.02363 1.484502,-2.58971 2.737734,-5.422376 3.989328,-8.224331 1.795242,-4.668644 3.415615,-9.424096 4.230653,-14.612979 0.806692,-5.192283 1.259674,-10.399929 0.539823,-15.679283 -0.553342,-4.351639 -1.282981,-8.726409 -2.777997,-12.681992 -1.645157,-4.083614 -3.366655,-6.941983 -6.149647,-9.73285 0,0 9.241537,-7.810447 9.241537,-7.810447 z"
       inkscape:connector-curvature="0" />
    <path
       style="opacity:1;fill:#008000;stroke-width:1.2118448"
       id="path27"
       d="m 20.208836,50.382602 c 3.210195,-4.188306 6.710846,-7.89539 10.48627,-11.190673 5.495064,-3.863924 10.825954,-9.008569 16.891299,-11.577494 3.038518,-1.286938 6.186401,-2.081517 9.319535,-2.854616 5.536852,-1.198374 11.152178,-1.734318 16.762366,-1.582455 5.757095,0.36493 11.303291,2.547444 16.71515,4.966055 3.81954,1.571929 6.805173,4.223993 9.677294,7.736871 1.92132,2.472863 3.37998,5.294217 4.36785,8.545474 0.72532,2.559513 0.87081,5.275112 0.95471,7.972812 0.009,3.76273 -1.56522,6.907937 -3.21348,9.845229 -3.499013,5.217067 -8.033579,8.982237 -12.383216,12.888302 -2.839495,2.385795 -3.301083,2.848581 -6.342329,5.077215 -4.343395,3.182853 -8.675835,6.392824 -13.067295,9.46328 -4.475811,3.129433 -9.277827,5.63649 -13.933133,8.27052 -10.09285,5.648358 -20.370267,10.712708 -30.557717,16.065048 -3.570848,1.97408 -7.142529,3.94364 -10.73376,5.85472 0,0 8.520124,-8.68104 8.520124,-8.68104 v 0 c 3.509759,-1.83737 7.003187,-3.72479 10.498086,-5.60903 10.19109,-5.30674 20.449275,-10.404735 30.522097,-16.082225 4.235399,-2.432667 5.530688,-3.126826 9.653514,-5.685643 1.455262,-0.903201 5.391109,-4.358408 4.342951,-2.770351 -1.334034,2.021185 -3.549248,2.683643 -5.258629,4.157691 -2.038271,1.757656 7.991514,-6.11496 6.281117,-4.934886 4.293051,-3.81847 8.707658,-7.532037 12.355081,-12.391409 1.603923,-2.596183 3.199965,-5.47039 3.414315,-8.889471 -0.04173,-2.550757 -0.119619,-5.126067 -0.747962,-7.569938 -0.882502,-3.071782 -2.281878,-5.705398 -4.082018,-8.019893 -2.696914,-3.310912 -5.712325,-5.850714 -9.284458,-7.346225 -5.342546,-2.389457 -10.841294,-4.409601 -16.533474,-4.580874 -5.54389,-0.04047 -11.093715,0.468357 -16.554429,1.74922 -4.087313,1.090725 -8.123774,2.285036 -11.939418,4.538408 -0.823531,0.486347 -3.190543,2.20688 -2.425339,1.581048 2.26505,-1.852504 4.621353,-3.511273 6.93203,-5.266908 -3.758212,3.126615 -7.250615,6.65648 -10.364573,10.815792 0,0 -10.272559,5.505446 -10.272559,5.505446 z"
       inkscape:connector-curvature="0" />
    <path
       style="opacity:1;fill:#008000;stroke-width:1.53277242"
       id="path29"
       d="m 94.812043,115.83998 c 4.20587,1.83405 8.748527,2.98052 13.282257,4.02391 4.27883,0.98845 8.69819,1.15699 13.09815,1.26551 5.20977,-0.16076 10.367,-0.86778 15.19752,-2.59062 2.50528,-0.92372 1.15661,-0.34375 3.31458,-1.43264 0.42728,-0.21559 1.71592,-0.85218 1.28742,-0.63841 -24.58394,12.26406 -16.01603,8.76794 -11.63017,5.47214 1.68745,-1.3632 2.41118,-3.26553 3.09607,-5.12097 0.70801,-2.23178 0.87204,-4.56192 0.74843,-6.86464 -0.28648,-2.8163 -2.22631,-5.08514 -3.71496,-7.49755 -1.10343,-1.84204 -2.58948,-2.978425 -4.88234,-3.499854 -3.78701,-0.389975 -7.62679,-0.381336 -11.42861,-0.192203 -6.54191,1.015482 -12.92098,2.730027 -19.108497,4.813877 -2.00297,0.67921 -3.09578,1.00738 -4.99415,1.80458 -0.66711,0.28016 -2.60735,1.22351 -1.96623,0.90082 23.479747,-11.817548 14.226067,-7.584768 9.47809,-4.20319 -4.59218,3.91764 -7.96317,8.75256 -11.27282,13.50582 -3.129,4.52002 -5.85572,9.22663 -7.45923,14.32231 -1.2815,4.58297 -1.25696,9.2129 -0.17855,13.80792 1.88385,6.26419 5.84391,11.88447 9.81389,17.30142 2.89282,3.93294 6.23644,7.6638 10.14325,10.88514 2.491947,2.05472 3.814557,2.77358 6.598747,4.54222 5.91568,3.75934 12.84081,5.79146 19.90907,7.20697 3.82118,0.7269 7.73049,0.87978 11.62792,0.89844 2.33703,-0.11482 4.31418,-1.17697 6.54318,-1.66351 6.63119,-1.81433 16.04954,-7.1211 -9.08041,5.27239 0,0 16.10274,-5.3849 16.10274,-5.3849 v 0 c -7.46378,3.69775 -12.96689,7.35683 -20.67447,9.25557 -2.22436,0.6645 -4.39993,1.3968 -6.81198,1.26425 -3.93205,-0.11325 -7.86537,-0.41357 -11.6882,-1.26768 -7.15711,-1.64751 -14.138767,-3.87032 -20.113327,-7.77917 -7.01171,-4.51981 -12.50689,-9.36988 -17.096583,-15.87201 -4.05967,-5.56492 -8.172412,-11.29961 -10.229366,-17.69179 -1.255636,-4.76461 -1.436334,-9.59119 -0.237844,-14.3964 1.486156,-5.27129 4.20685,-10.10476 7.391981,-14.76397 3.314009,-4.79337 6.588682,-9.66405 10.904282,-13.84754 7.35116,-6.22489 17.13288,-9.967248 26.630947,-13.161897 6.31609,-1.974769 12.78908,-3.783226 19.47703,-4.48232 3.98065,-0.131096 8.0971,-0.309404 11.99112,0.539094 2.48795,0.90415 4.28421,2.374841 5.51988,4.478207 1.56342,2.606572 3.60071,5.048986 4.05303,8.043696 0.25702,2.43496 0.12601,4.91361 -0.43844,7.3135 -0.59754,2.02688 -1.35918,4.10706 -2.73924,5.83577 -5.90842,5.54595 -14.45813,8.44175 -22.33807,11.43071 -5.01658,1.44606 -10.29015,2.10248 -15.57608,2.11828 -4.49478,-0.14708 -8.987737,-0.42699 -13.324847,-1.55229 -4.63154,-1.14204 -9.2468,-2.38745 -13.60577,-4.18566 0,0 14.3806,-8.21333 14.3806,-8.21333 z"
       inkscape:connector-curvature="0" />
    <path
       style="opacity:1;fill:#008000;stroke-width:1.16688764"
       id="path31"
       d="m 158.9765,176.17357 c 1.45041,4.78589 3.24715,9.39619 4.89431,14.083 1.80348,4.6621 2.89906,9.5482 3.42007,14.64159 0.40688,5.15438 0.34245,10.34303 0.33477,15.51511 -0.095,4.96494 0.11427,9.93822 -0.0554,14.9002 -0.0674,2.62875 -0.66756,5.15062 -1.34152,7.62805 -0.38524,1.44949 0.14291,-0.22178 -0.25516,-0.008 -3.22573,1.7318 -6.27919,3.91384 -9.50436,5.64718 -0.4293,0.23072 0.72395,-0.72735 1.06927,-1.11382 0.64611,-0.7231 1.25286,-1.49735 1.90401,-2.21373 1.02273,-1.12523 2.07761,-2.20653 3.11642,-3.3098 13.1822,-13.17593 26.62527,-25.9588 40.07947,-38.71994 12.96253,-12.22346 25.8205,-24.60893 38.96617,-36.54159 0,0 9.74843,-4.70244 9.74843,-4.70244 v 0 c -13.43257,11.93581 -26.53343,24.39981 -39.65228,36.83825 -13.21897,12.56354 -26.40519,25.182 -39.2873,38.25539 -1.44875,1.55166 -3.34715,3.47894 -4.72453,5.26031 -0.31831,0.41167 -0.46708,1.04561 -0.87233,1.32223 -3.37267,2.30219 -6.80051,4.51553 -10.36304,6.34706 -0.2395,0.12311 -0.34203,-0.50506 -0.40212,-0.8126 -0.0374,-0.19136 0.0883,-0.37843 0.13249,-0.56764 0.80383,-2.33249 1.37748,-4.8019 1.57315,-7.32352 0.33631,-4.94633 0.0901,-9.93057 0.18524,-14.88808 -0.008,-5.11644 0.0284,-10.24329 -0.32145,-15.34647 -0.46787,-4.97915 -1.45621,-9.78554 -3.22297,-14.34178 -1.64558,-4.67145 -3.40176,-9.28386 -5.0605,-13.94785 0,0 9.63915,-6.60105 9.63915,-6.60105 z"
       inkscape:connector-curvature="0" />
    <ellipse
       style="opacity:0.58500013;fill:#0000ff"
       id="path39"
       cx="127.13421"
       cy="55.318295"
       rx="61.630157"
       ry="56.699745" />
    <ellipse
       style="opacity:0.58500013;fill:#800000"
       id="path43"
       cx="60.925808"
       cy="193.01767"
       rx="60.221466"
       ry="58.460606" />
    <ellipse
       style="opacity:0.58500013;fill:#88aa00;stroke-width:1.29691362"
       id="path48"
       cx="193.59207"
       cy="172.62177"
       rx="50.111164"
       ry="49.978386" />
  </g>
</svg>
