<?xml version="1.0" encoding="UTF-8" standalone="no"?>
<!-- Created with Inkscape (http://www.inkscape.org/) -->

<svg
   xmlns:dc="http://purl.org/dc/elements/1.1/"
   xmlns:cc="http://creativecommons.org/ns#"
   xmlns:rdf="http://www.w3.org/1999/02/22-rdf-syntax-ns#"
   xmlns:svg="http://www.w3.org/2000/svg"
   xmlns="http://www.w3.org/2000/svg"
   xmlns:xlink="http://www.w3.org/1999/xlink"
   xmlns:sodipodi="http://sodipodi.sourceforge.net/DTD/sodipodi-0.dtd"
   xmlns:inkscape="http://www.inkscape.org/namespaces/inkscape"
   width="255px"
   height="255px"
   viewBox="0 0 255 255"
   version="1.1"
   id="SVGRoot"
   inkscape:version="0.92.4 (5da689c313, 2019-01-14)"
   sodipodi:docname="logo.svg">
  <defs
     id="defs10">
    <linearGradient
       inkscape:collect="always"
       id="linearGradient91">
      <stop
         style="stop-color:#ff6600;stop-opacity:1;"
         offset="0"
         id="stop87" />
      <stop
         style="stop-color:#ff6600;stop-opacity:0;"
         offset="1"
         id="stop89" />
    </linearGradient>
    <linearGradient
       inkscape:collect="always"
       id="linearGradient39">
      <stop
         style="stop-color:#008080;stop-opacity:1;"
         offset="0"
         id="stop35" />
      <stop
         style="stop-color:#008080;stop-opacity:0;"
         offset="1"
         id="stop37" />
    </linearGradient>
    <linearGradient
       inkscape:collect="always"
       xlink:href="#linearGradient39"
       id="linearGradient41"
       x1="77.695312"
       y1="108.57422"
       x2="229.10156"
       y2="217.14844"
       gradientUnits="userSpaceOnUse"
       gradientTransform="matrix(1.1643192,0,0,1.4619882,-45.885785,-117.80701)" />
    <linearGradient
       inkscape:collect="always"
       xlink:href="#linearGradient91"
       id="linearGradient93"
       x1="219.14062"
       y1="18.925781"
       x2="113.45014"
       y2="143.56915"
       gradientUnits="userSpaceOnUse" />
  </defs>
  <sodipodi:namedview
     id="base"
     pagecolor="#ffffff"
     bordercolor="#666666"
     borderopacity="1.0"
     inkscape:pageopacity="0.0"
     inkscape:pageshadow="2"
     inkscape:zoom="1.0039216"
     inkscape:cx="-61.259766"
     inkscape:cy="127.5"
     inkscape:document-units="px"
     inkscape:current-layer="layer1"
     showgrid="false"
     inkscape:window-width="1920"
     inkscape:window-height="950"
     inkscape:window-x="2391"
     inkscape:window-y="460"
     inkscape:window-maximized="1"
     inkscape:grid-bbox="true" />
  <metadata
     id="metadata13">
    <rdf:RDF>
      <cc:Work
         rdf:about="">
        <dc:format>image/svg+xml</dc:format>
        <dc:type
           rdf:resource="http://purl.org/dc/dcmitype/StillImage" />
        <dc:title></dc:title>
      </cc:Work>
    </rdf:RDF>
  </metadata>
  <g
     inkscape:label="Layer 1"
     inkscape:groupmode="layer"
     id="layer1">
    <ellipse
       style="opacity:0.58500013;fill:url(#linearGradient41);fill-opacity:1;stroke-width:1.30469191"
       id="path33"
       cx="127.50001"
       cy="130.48828"
       rx="123.51562"
       ry="124.51172" />
    <path
       style="opacity:0.58500013;fill:#000080"
       id="path49"
       d="m 45.017992,62.71517 c -2.180866,3.399569 -4.286349,6.845835 -6.301077,10.346246 -1.668274,2.53349 -3.002739,5.13118 -3.700322,8.087729 -0.629998,3.712493 -0.602309,7.497252 -0.627955,11.251282 0.02466,4.502574 -0.0992,9.010273 0.112192,13.508903 0.52523,4.28256 2.593094,7.9787 5.359324,11.20417 2.105106,2.09672 4.329554,3.97714 6.852974,5.53285 0.143037,0.0577 0.286074,0.11541 0.429112,0.17311 0,0 -12.45463,8.13239 -12.45463,8.13239 v 0 c -0.147094,-0.10029 -0.294189,-0.20057 -0.441284,-0.30086 -2.539398,-1.73174 -4.805174,-3.77302 -6.938142,-5.98923 -2.919528,-3.50003 -5.159288,-7.46009 -5.809153,-12.03913 -0.274575,-4.51908 -0.107747,-9.04908 -0.172174,-13.574574 0.0096,-3.827235 -0.05126,-7.673028 0.431759,-11.477434 0.547998,-3.117345 1.63005,-5.949699 3.537423,-8.510658 1.918142,-3.540174 4.186563,-6.882646 6.189782,-10.376547 0,0 13.532171,-5.968247 13.532171,-5.968247 z"
       inkscape:connector-curvature="0" />
    <path
       style="opacity:0.58500013;fill:#000080"
       id="path51"
       d="m 26.150171,53.710744 c 3.598931,3.459284 7.463334,6.676211 11.852276,9.093563 1.246012,0.686281 2.542319,1.276997 3.813479,1.915496 10.641892,4.38377 21.945137,6.897299 33.262516,8.791093 8.060389,1.022635 16.214004,2.106733 24.357658,1.772531 0,0 -11.801458,8.603027 -11.801458,8.603027 v 0 C 79.548906,83.810448 71.491998,82.83156 63.506701,81.620627 52.060816,79.596838 40.597717,77.055956 29.821364,72.609124 28.508104,71.950382 27.167622,71.34332 25.881585,70.632897 21.39263,68.153144 17.479302,64.837838 13.607791,61.512043 c 0,0 12.54238,-7.801299 12.54238,-7.801299 z"
       inkscape:connector-curvature="0" />
    <path
       style="opacity:0.58500013;fill:#000080"
       id="path53"
       d="m 83.636551,125.4215 c -3.37215,2.2591 -6.567221,4.76253 -9.627932,7.42439 -1.936594,1.64682 -3.792865,3.42231 -5.354343,5.43288 -1.477354,1.82048 -2.758276,3.71617 -3.712867,5.85647 -0.888144,1.81884 -1.259599,3.78069 -1.456729,5.77628 -0.15017,2.14851 -0.128198,4.30439 -0.152543,6.45682 -0.236182,3.52681 0.346508,6.97335 0.982078,10.42402 0.59036,3.00953 1.964824,5.73253 3.592649,8.29752 2.047534,2.99465 4.333951,5.87573 6.82715,8.52052 2.440649,2.81884 5.268851,5.24329 8.350591,7.32397 1.945512,1.29904 4.143444,1.75283 6.43079,1.9297 1.005837,-0.0716 2.086061,0.22494 3.086721,0.0617 1.099483,-0.1794 2.28811,-0.78457 3.282339,-1.25712 5.050515,-3.05867 -0.597425,0.37401 -10.482544,5.95817 -0.364871,0.20612 0.706476,-0.45095 1.058689,-0.67802 1.106141,-0.71313 2.115628,-1.47665 3.123668,-2.32235 1.925601,-1.45151 3.150784,-3.36885 4.239359,-5.47016 1.571806,-2.87902 3.089298,-5.76679 4.116677,-8.88796 0.94018,-2.94177 1.855293,-5.89064 2.708376,-8.85895 0.93848,-3.22025 1.16263,-6.56303 1.30671,-9.89446 0.30524,-3.72246 -0.47756,-7.36089 -1.43538,-10.93037 -0.567392,-2.90051 -1.896882,-5.46351 -3.400193,-7.96771 -1.433607,-2.71715 -3.205946,-5.23243 -4.74169,-7.88564 -1.365087,-2.63537 -3.250314,-4.83912 -5.501504,-6.74119 -1.911276,-1.7438 -4.084089,-2.93514 -6.563568,-3.62218 -1.04262,-0.32512 -1.823499,-0.29632 -2.783539,0.1518 0,0 11.820739,-8.95495 11.820739,-8.95495 v 0 c 1.090701,1.8e-4 2.138132,0.11177 3.175752,0.49013 2.569372,0.91042 4.857626,2.28407 6.87191,4.13589 2.324013,2.04958 4.282063,4.42102 5.737153,7.17279 1.53295,2.64391 3.30977,5.1459 4.72828,7.8606 1.59295,2.61039 3.02147,5.30085 3.58679,8.34506 0.96638,3.70082 1.8682,7.46398 1.62841,11.3218 -0.11226,3.4248 -0.25346,6.86708 -1.13256,10.19933 -0.83388,2.98438 -1.70096,5.95754 -2.69572,8.89273 -0.93602,3.20741 -2.34048,6.18552 -3.95998,9.10588 -1.13474,2.17642 -2.04786,4.40979 -4.0158,6.01204 -0.68969,0.57048 -1.31602,1.21513 -2.00933,1.78122 -0.37808,0.3087 -1.683903,1.13945 -2.103193,1.38536 -13.754232,8.06688 -8.932603,5.82349 -14.889772,8.53704 -2.246106,0.75501 -4.471565,1.00498 -6.829793,0.62392 -2.44443,-0.36267 -4.748733,-1.1114 -6.780672,-2.56939 -3.108176,-2.19837 -5.908548,-4.79259 -8.449508,-7.62845 -2.550669,-2.72099 -4.933338,-5.63532 -7.024396,-8.72086 -1.747058,-2.71614 -3.201917,-5.62009 -3.849965,-8.81218 -0.617333,-3.51999 -1.362139,-7.03191 -1.149691,-10.62986 -0.03068,-2.18079 -0.05662,-4.36355 0.04903,-6.54292 0.142473,-2.12741 0.399358,-4.25603 1.253219,-6.23377 0.985571,-2.19874 1.926321,-4.34802 3.593066,-6.15003 1.502507,-2.15028 3.280316,-4.07545 5.295088,-5.77121 3.093761,-2.61633 6.192198,-5.20856 9.469099,-7.59977 0,0 13.788877,-5.3485 13.788877,-5.3485 z"
       inkscape:connector-curvature="0" />
    <path
       style="opacity:0.58500013;fill:#000080"
       id="path55"
       d="m 141.69705,85.585744 c 3.63424,3.116875 6.57154,6.800644 9.10254,10.835693 2.14308,3.354569 3.38999,7.115843 4.27331,10.966443 0.72798,3.68515 0.82451,7.4518 0.89696,11.19553 0.0483,3.17435 -0.0793,6.34028 0.27455,9.49962 0.16942,2.3213 1.09629,4.46972 1.9918,6.58871 0.74848,2.17463 1.59111,4.23482 2.77536,6.20671 0.74175,1.74555 1.74783,2.67957 3.57932,3.0476 1.15459,0.20526 2.15996,0.24213 3.16758,-0.42146 0.25279,-0.16648 0.98915,-0.69459 0.72515,-0.54653 -3.95726,2.21932 -7.87442,4.50939 -11.81163,6.76408 1.88795,-1.63596 3.24986,-3.83628 4.62906,-5.90603 1.54884,-2.16183 2.50481,-4.58091 3.26491,-7.10721 1.15738,-4.00604 1.74787,-8.14335 2.52689,-12.23272 0.68143,-4.20824 1.70692,-8.33788 2.91506,-12.42144 0.88586,-3.00727 1.82566,-5.98608 2.32182,-9.08636 0.18166,-2.68924 0.52012,-5.328349 1.20675,-7.935617 0.45114,-2.383168 1.08244,-4.723716 1.61859,-7.087756 0.31333,-1.21611 0.14005,-0.629686 0.51367,-1.761086 0,0 13.42673,-6.285879 13.42673,-6.285879 v 0 c -0.39021,1.072219 -0.1856,0.537757 -0.61418,1.603253 -0.47456,2.407504 -1.30835,4.721131 -1.61883,7.163757 -0.6618,2.57068 -1.29171,5.11591 -1.30982,7.797693 -0.39341,3.198264 -1.30545,6.244955 -2.27421,9.312515 -1.24064,4.0436 -2.37403,8.1202 -3.02894,12.30718 -0.78522,4.09791 -1.33064,8.24758 -2.39523,12.2851 -0.62136,2.66707 -1.50329,5.23162 -3.02499,7.52989 -1.43559,2.15021 -2.91386,4.26498 -4.38948,6.38912 -4.4989,2.65451 -8.97064,5.3556 -13.4967,7.96352 -1.39866,0.80592 -3.1393,0.38874 -4.59509,0.0379 -1.96815,-0.7547 -3.2952,-2.03886 -4.13361,-3.99832 -1.19931,-2.03276 -2.1462,-4.12909 -2.87583,-6.3766 -0.96349,-2.2362 -1.95017,-4.53605 -2.16074,-6.98382 -0.37402,-3.21076 -0.31571,-6.42101 -0.2956,-9.65084 -0.0464,-3.65484 -0.0954,-7.33042 -0.74917,-10.93818 -0.78865,-3.70232 -1.97165,-7.32521 -3.99646,-10.55375 -2.42454,-3.948296 -5.27103,-7.559609 -8.98192,-10.399377 0,0 12.54238,-7.801299 12.54238,-7.801299 z"
       inkscape:connector-curvature="0" />
    <path
       style="opacity:0.58500013;fill:#000080"
       id="path57"
       d="m 185.88891,105.29167 c -0.0795,3.53725 -0.0418,7.07573 -0.0377,10.61352 -0.0166,3.20703 0.0155,6.41398 0.0153,9.62097 0.002,2.48005 0.0244,4.96005 0.0149,7.44009 0.10008,2.17245 -0.26981,4.40674 0.31456,6.52524 0.42971,1.57631 1.27397,2.90128 2.19418,4.21958 0.40457,0.55074 0.92478,0.76938 1.541,0.99451 0,0 -12.39469,8.16107 -12.39469,8.16107 v 0 c -0.74149,-0.44469 -1.43324,-0.89614 -1.93421,-1.62549 -1.00981,-1.44681 -1.89511,-2.93494 -2.3989,-4.64438 -0.72056,-2.25442 -0.46867,-4.58012 -0.49099,-6.92056 -0.01,-2.4851 0.0129,-4.97017 0.0149,-7.45527 -2.2e-4,-3.21218 0.0318,-6.42433 0.0153,-9.63654 0.004,-3.52499 0.0421,-7.05069 -0.0377,-10.57513 0,0 13.18407,-6.71761 13.18407,-6.71761 z"
       inkscape:connector-curvature="0" />
    <path
       style="opacity:0.58500013;fill:#000080"
       id="path59"
       d="m 178.42551,177.78521 c 3.02357,4.73206 4.98686,10.00307 7.102,15.17411 1.50007,3.82621 2.98672,7.63367 3.83161,11.66355 0.56059,2.67395 0.5505,5.34766 0.0399,8.01822 -0.66903,3.00652 -2.39649,5.52558 -3.97605,8.10656 -1.36466,2.19732 -2.98087,4.24591 -4.72111,6.15786 -4.84623,4.37512 -10.82616,10.09615 -17.44118,9.93127 -3.01558,-0.5338 -3.62065,-3.09682 -4.04041,-5.75057 -0.21123,-3.60993 -0.51621,-7.2619 -0.25699,-10.8796 0.14364,-2.00468 0.51298,-4.00254 0.83513,-5.98255 0.99247,-5.46109 4.08152,-9.83685 7.89317,-13.71228 10.71897,-8.60998 18.19138,-11.39952 30.38882,-13.32576 7.04133,-0.70263 14.09381,-1.18268 21.10339,-2.17563 0,0 -11.67198,8.71756 -11.67198,8.71756 v 0 c -6.98293,0.86176 -14.01106,1.2375 -20.98682,2.15169 -3.35171,0.59955 -6.72942,1.18524 -9.95916,2.30317 -0.99775,0.34536 -3.81011,1.78121 -2.93562,1.18957 2.4154,-1.63412 14.97219,-8.99879 7.55655,-4.40898 -3.92941,3.47253 -7.08054,7.69632 -8.31935,12.87657 -0.26928,1.51748 -0.79125,4.2668 -0.92587,5.80077 -0.3083,3.51316 0.0397,7.06489 0.27966,10.56859 0.31728,2.11888 0.32313,4.00341 2.94928,3.79532 5.2689,-1.29731 0.71586,-0.25213 -11.23045,6.77858 -0.25047,0.14741 0.53752,-0.22549 0.78862,-0.37183 0.86747,-0.50556 1.44663,-1.32022 2.31949,-1.81902 1.8232,-1.79273 3.41659,-3.80583 4.91443,-5.87688 1.47003,-2.5128 3.29203,-4.83085 4.13558,-7.65992 0.63814,-2.4822 0.73738,-4.9593 0.26146,-7.49168 -0.70953,-3.97679 -2.11654,-7.73057 -3.54211,-11.50047 -2.04594,-5.11465 -3.92414,-10.35976 -7.15691,-14.87971 0,0 12.76497,-7.39851 12.76497,-7.39851 z"
       inkscape:connector-curvature="0" />
    <ellipse
       style="opacity:0.58500013;fill:url(#linearGradient93);fill-opacity:1"
       id="path77"
       cx="168.83789"
       cy="84.169922"
       rx="88.154297"
       ry="82.177734" />
  </g>
</svg>
