<?xml version="1.0" encoding="UTF-8" standalone="no"?>
<!-- Created with Inkscape (http://www.inkscape.org/) -->

<svg
   xmlns:dc="http://purl.org/dc/elements/1.1/"
   xmlns:cc="http://creativecommons.org/ns#"
   xmlns:rdf="http://www.w3.org/1999/02/22-rdf-syntax-ns#"
   xmlns:svg="http://www.w3.org/2000/svg"
   xmlns="http://www.w3.org/2000/svg"
   xmlns:sodipodi="http://sodipodi.sourceforge.net/DTD/sodipodi-0.dtd"
   xmlns:inkscape="http://www.inkscape.org/namespaces/inkscape"
   width="297mm"
   height="297mm"
   viewBox="0 0 326.7 326.69999"
   version="1.1"
   id="svg8"
   sodipodi:docname="cine_icono.svg"
   inkscape:version="0.92.4 (5da689c313, 2019-01-14)">
  <defs
     id="defs2" />
  <sodipodi:namedview
     id="base"
     pagecolor="#ffffff"
     bordercolor="#666666"
     borderopacity="1.0"
     inkscape:pageopacity="0.0"
     inkscape:pageshadow="2"
     inkscape:zoom="0.35"
     inkscape:cx="400"
     inkscape:cy="560"
     inkscape:document-units="mm"
     inkscape:current-layer="layer1"
     showgrid="false"
     inkscape:window-width="1920"
     inkscape:window-height="950"
     inkscape:window-x="-9"
     inkscape:window-y="-9"
     inkscape:window-maximized="1"
     inkscape:snap-text-baseline="true"
     showguides="true"
     scale-x="1.1">
    <inkscape:grid
       type="xygrid"
       id="grid49" />
  </sodipodi:namedview>
  <metadata
     id="metadata5">
    <rdf:RDF>
      <cc:Work
         rdf:about="">
        <dc:format>image/svg+xml</dc:format>
        <dc:type
           rdf:resource="http://purl.org/dc/dcmitype/StillImage" />
        <dc:title></dc:title>
      </cc:Work>
    </rdf:RDF>
  </metadata>
  <g
     inkscape:label="Layer 1"
     inkscape:groupmode="layer"
     id="layer1">
    <rect
       style="opacity:0.80000001;fill:#ffdd55;stroke-width:0.34654978"
       id="rect10"
       width="327.47858"
       height="329.21725"
       x="0.75595242"
       y="-0.8452372" />
    <path
       style="opacity:0.8;vector-effect:none;fill:#ffeeaa;fill-opacity:1;stroke-width:8.16326523;stroke-linecap:butt;stroke-linejoin:miter;stroke-miterlimit:4;stroke-dasharray:none;stroke-dashoffset:0;stroke-opacity:1"
       d="M 2.8571429,562.23397 V -2.0517435 H 564.28571 1125.7143 V 562.23397 1126.5197 H 564.28571 2.8571429 Z M 695.3966,1048.2651 c 12.76683,-5.3343 23.46869,-17.4033 29.33706,-33.0849 4.06751,-10.8693 5.03271,-27.30037 6.01645,-102.41911 l 1.17172,-89.47289 -10.96092,0.90146 -10.96091,0.90145 -1.47849,87.14286 c -0.93045,54.84126 -2.66228,89.79053 -4.67211,94.28573 -5.34163,11.9471 -14.74666,18.4416 -26.70654,18.4416 -12.80032,0 -21.55666,-6.6318 -28.12226,-21.2988 -3.64543,-8.14359 -4.68549,-25.77921 -5.60249,-94.99996 l -1.12605,-85 h -9.89889 -9.89888 l 0.89571,90.71429 0.89571,90.71427 7.49049,15.9729 c 6.80414,14.5094 16.79586,24.8143 28.2238,29.1085 8.05477,3.0266 25.88774,2.0657 35.3966,-1.9074 z m -618.253743,-88.29444 1.428572,-87.97763 29.555111,88.83746 29.55511,88.83741 13.30204,-0.8598 13.30202,-0.8598 V 936.51969 825.09111 h -10 -10 l -0.90409,85.71429 -0.90409,85.71429 -29.1362,-85.71429 -29.136207,-85.71429 -13.531134,-0.87082 -13.531132,-0.87083 v 111.10891 c 0,61.10992 0.916169,112.02513 2.035932,113.14483 1.119762,1.1198 5.298334,1.6555 9.285714,1.1905 l 7.249783,-0.8454 z m 213.727973,74.40614 0.87083,-13.5714 H 255.87083 220 v -38.57143 -38.57143 h 32.85714 32.85715 V 929.37683 915.09111 H 252.85714 220 v -31.42857 -31.42857 h 34.28571 34.28572 V 837.94826 823.66254 H 244.28571 200 v 112.92969 112.92967 l 45,-0.7868 45,-0.7868 z m 57.36743,-31.3819 c 10.29168,-24.72439 19.5406,-44.0101 20.55317,-42.85716 1.0126,1.15292 9.21306,20.09623 18.22326,42.09626 9.01022,22 17.70391,41.6071 19.31931,43.5714 3.18277,3.8701 18.2092,4.9206 20.3702,1.4241 0.72994,-1.1811 -8.83706,-26.4588 -21.25994,-56.17267 -12.42292,-29.71389 -22.58712,-56.20812 -22.58712,-58.87603 0,-2.66791 9.64286,-27.67297 21.42857,-55.5668 11.78572,-27.89386 21.42858,-51.21903 21.42858,-51.83377 0,-0.61472 -4.99746,-1.11769 -11.10543,-1.11769 h -11.10543 l -17.20106,40.71429 -17.20106,40.71428 -4.63397,-11.42857 c -2.54868,-6.28571 -10.08905,-24.28571 -16.7564,-40 -12.05508,-28.41271 -12.1816,-28.57634 -22.77383,-29.4582 -5.85825,-0.48771 -10.6514,0.3948 -10.6514,1.96112 0,1.56631 9.44315,25.33423 20.9848,52.8176 l 20.98478,49.96977 -23.84192,56.59988 c -13.11308,31.12999 -23.84194,58.30299 -23.84194,60.38449 0,2.6145 3.23923,3.5104 10.47734,2.8978 l 10.47737,-0.8867 z m 151.08497,-52.90379 0.7518,-97.85714 h 24.2482 24.2482 v -14.28571 -14.28572 h -60 -60 v 14.28572 14.28571 h 24.28571 24.28572 v 96.66666 c 0,53.16667 0.91808,97.58477 2.04017,98.70687 1.12208,1.1221 5.94351,1.6578 10.71428,1.1904 l 8.67412,-0.8496 z M 1024.167,910.71629 c 16.795,-4.37455 42.5245,-16.78386 55.6661,-26.8476 l 6.9759,-5.34215 -8.4045,0.71669 c -4.6225,0.3942 -15.5782,2.3482 -24.346,4.34223 -19.1851,4.36323 -56.21804,0.3752 -75.00856,-8.07755 -16.20003,-7.28748 -32.66705,-24.42814 -41.25563,-42.94337 -7.4056,-15.96497 -17.00117,-65.11651 -14.15848,-72.5244 0.9226,-2.40425 7.21446,-5.0704 14.56803,-6.17314 13.19597,-1.97886 42.24237,-15.93109 63.73954,-30.6168 6.5688,-4.48749 14.1986,-8.15909 16.955,-8.15909 10.1609,0 28.8381,-12.14034 51.1016,-33.21651 18.8589,-17.85314 20.858,-20.50886 11.4286,-15.18217 -6.2857,3.55083 -12.65,7.53597 -14.1429,8.85594 -1.4928,1.31994 -4.0643,2.36152 -5.7143,2.31463 -1.65,-0.0469 2.7857,-5.26037 9.8572,-11.58551 11.6516,-10.422 11.9998,-11.08372 3.7133,-7.0576 -5.0291,2.44345 -11.7357,4.44265 -14.9036,4.44265 -3.1679,0 -13.8308,5.21657 -23.6954,11.59237 -32.0638,20.72383 -51.63441,28.91283 -72.81804,30.46949 -17.9218,1.31697 -20.17817,2.24009 -28.90709,11.82617 l -9.46794,10.39769 1.29474,-17.14286 c 1.76177,-23.32614 43.56854,-136.7864 58.39386,-158.4762 5.87171,-8.59049 22.46367,-25.94549 36.87107,-38.56666 14.4074,-12.62117 25.8739,-23.26903 25.481,-23.66191 -1.822,-1.82194 -38.4865,14.92454 -47.3905,21.64557 -5.5,4.1516 -19.82449,16.92531 -31.8322,28.38606 -21.93789,20.9386 -37.21551,44.75063 -45.34334,70.67314 -1.97083,6.28571 -11.36583,32 -20.87777,57.14286 l -17.29446,45.71428 -1.20329,41.91097 c -3.13214,109.09283 30.06743,153.83878 118.09366,159.16495 3.2055,0.194 13.3865,-1.61603 22.6244,-4.02217 z M 792.23623,749.29954 c -0.79466,-3.03868 0.80294,-16.80008 3.55017,-30.58094 4.0888,-20.51049 4.65514,-33.09023 3.12174,-69.34177 -2.89377,-68.41286 -15.7096,-144.81494 -27.3014,-162.75846 -4.04608,-6.26311 -38.59783,5.55483 -53.47745,18.29123 l -11.47398,9.82131 1.35443,-44.5634 c 1.13295,-37.27531 0.70555,-44.29745 -2.61337,-42.93731 -2.18228,0.89434 -13.12128,5.7176 -24.30888,10.71834 l -20.34109,9.09229 -1.55634,51.88228 c -1.66755,55.59023 -5.27823,80.2052 -20.76586,141.567 -5.39823,21.38769 -9.82346,39.91155 -9.83386,41.16409 -0.0114,1.25254 11.24472,-3.54006 25.01137,-10.65026 l 25.03026,-12.92763 15.59123,-36.4926 c 8.57517,-20.07094 20.93243,-48.06402 27.46057,-62.20688 l 11.86932,-25.71429 3.24257,11.80489 c 12.26994,44.66983 18.38925,153.54334 10.65791,189.62368 -9.70271,45.2802 -6.50646,49.61038 23.90223,32.38195 18.04009,-10.22086 22.04789,-13.70912 20.88043,-18.17352 z M 450,594.2788 472.85714,582.23397 486.86991,553.66254 C 503.92449,518.889 504.9294,511.69031 507.56369,405.42231 l 1.90405,-76.81162 -14.01957,7.97857 c -7.71077,4.38823 -18.19817,10.4512 -23.30531,13.47325 l -9.28572,5.49466 v 52.215 c 0,80.24217 -4.31994,124.02877 -14.88968,150.9204 -4.79326,12.19509 -12.37566,27.94509 -16.84975,35 -4.47408,7.05492 -7.19874,12.783 -6.0548,12.72909 1.14398,-0.054 12.36566,-5.51817 24.93709,-12.14286 z M 294.48397,486.21283 c 10.10906,-7.64589 13.03472,-10.98706 8.39557,-9.58789 -6.37234,1.92195 -6.7108,1.654 -3.22157,-2.55025 3.45092,-4.15812 3.02866,-4.69786 -3.67531,-4.69786 -14.14367,0 -62.80187,-27.51023 -93.88146,-53.07846 -73.28847,-60.29211 -94.53615,-120.70383 -80.85473,-229.88728 3.69165,-29.46086 20.20424,-86.961879 30.4944,-106.189228 2.48535,-4.643914 7.61581,-5.130748 54.0701,-5.130748 h 51.32421 l 17.51197,-13.571429 17.51196,-13.571429 -13.93669,-0.91766 c -7.66519,-0.504711 -36.43671,-0.49902 -63.93671,0.01265 -45.97361,0.855391 -51.03535,1.472277 -62.85714,7.660569 -27.25296,14.265968 -34.11143,24.76276 -53.457441,81.815875 -21.555883,63.57021 -26.922749,137.19757 -13.620069,186.852 10.968051,40.94005 20.85923,56.96837 58.47588,94.75814 32.80591,32.95688 55.46149,49.99794 92.41035,69.50911 27.14015,14.33163 38.78313,14.05135 59.24668,-1.42611 z m 210.09134,-223.4627 c 3.37649,-10.63843 -1.70382,-30.37503 -9.05928,-35.19452 -6.40223,-4.19488 -7.50123,-4.18794 -13.38826,0.0846 -3.5274,2.56007 -11.23491,7.87137 -17.12777,11.8029 -11.85729,7.91081 -12.70134,11.81566 -7.64763,35.38029 l 3.06663,14.29928 21.22657,-10.50317 c 11.96437,-5.92013 21.96974,-12.84473 22.92974,-15.86941 z"
       id="path3774"
       inkscape:connector-curvature="0"
       transform="scale(0.29104167)" />
    <path
       style="opacity:0.4;vector-effect:none;fill:#ffeeaa;fill-opacity:1;stroke-width:2.37585044;stroke-linecap:butt;stroke-linejoin:miter;stroke-miterlimit:4;stroke-dasharray:none;stroke-dashoffset:0;stroke-opacity:1"
       d="M 1.1160909,163.56546 V -1.0830398 H 164.93304 328.74998 L 328.54002,163.3555 328.3301,327.79406 164.72309,328.00402 1.1160909,328.21397 Z M 204.48444,303.69092 c 4.02235,-2.35726 6.5111,-6.69995 7.83236,-13.66696 0.46417,-2.44753 0.84394,-14.89907 0.84394,-27.67009 v -23.22004 l -3.11831,0.25808 -3.1183,0.25809 -0.46333,25.3622 c -0.51645,28.27014 -0.81252,29.82171 -6.11326,32.03651 -4.83974,2.02216 -9.66848,-0.60598 -11.38543,-6.19677 -0.52347,-1.70454 -1.09952,-13.34588 -1.35066,-27.29495 l -0.43789,-24.32277 h -2.85862 -2.85862 l 0.26069,26.40164 0.26069,26.40164 2.18004,4.64877 c 1.98029,4.22284 4.8883,7.222 8.21431,8.47179 3.193,1.19979 8.69982,0.53275 12.11239,-1.46714 z M 22.801943,279.3564 l 0.06562,-25.57009 8.527117,25.3622 8.527119,25.36222 h 4.08837 4.088371 V 272.08036 239.65 l -3.105855,-0.25734 -3.105854,-0.25735 -0.220336,24.78801 -0.220342,24.78799 L 33.130677,264.18065 24.815201,239.65 20.86535,239.39655 16.915499,239.1431 v 32.8917 32.89168 h 2.910417 2.910416 l 0.06561,-25.57008 z m 62.300458,21.41235 v -4.15774 H 74.708057 64.313711 v -11.22589 -11.2259 h 9.562797 9.562799 v -4.15773 -4.15774 h -9.562799 -9.562797 v -9.14703 -9.14702 h 9.97857 9.978573 v -4.15774 -4.15774 H 71.381864 58.492877 v 32.84614 32.84612 h 13.304764 13.30476 z m 16.451869,-8.93108 c 2.94429,-6.97017 5.6307,-12.50157 5.9698,-12.29199 0.33911,0.20957 2.96701,6.00599 5.83981,12.88094 l 5.22326,12.49986 h 2.74993 c 1.51245,0 2.91832,-0.28065 3.12414,-0.62364 0.20581,-0.34303 -2.56682,-7.73342 -6.16141,-16.42308 -3.59459,-8.68967 -6.54738,-16.29037 -6.56175,-16.89042 -0.0144,-0.60006 2.63113,-7.49727 5.87889,-15.32712 3.24776,-7.82985 6.09427,-14.72927 6.32558,-15.33204 0.3049,-0.79459 -0.49607,-1.09596 -2.91275,-1.09596 h -3.3333 l -5.04053,11.84956 c -4.87667,11.46435 -5.06959,11.76846 -5.93457,9.35491 -0.49173,-1.37205 -2.65714,-6.6108 -4.81202,-11.64167 L 97.991391,239.65 94.873086,239.39191 c -1.903439,-0.15753 -3.118305,0.10531 -3.118305,0.67467 0,0.513 2.619375,7.13989 5.820834,14.72641 3.201455,7.58652 5.820835,14.39555 5.820835,15.13119 0,0.73564 -2.99357,8.39492 -6.652382,17.02063 -3.65881,8.6257 -6.65238,16.22288 -6.65238,16.88258 0,0.87411 0.828636,1.12947 3.054665,0.9414 l 3.054666,-0.25806 z m 44.05414,-15.80746 0.21881,-28.48051 h 7.05723 7.05724 v -4.15774 -4.15774 h -17.4625 -17.4625 v 4.15774 4.15774 h 7.06815 7.06816 v 28.13403 c 0,15.47371 0.2672,28.40123 0.59377,28.72781 0.32657,0.32658 1.72981,0.48249 3.1183,0.34646 l 2.52453,-0.24727 z M 298.8671,264.50293 c 5.36352,-1.59225 12.84632,-5.26193 15.74498,-7.7216 l 2.07635,-1.76189 -3.3262,0.36198 c -1.8294,0.19909 -5.07294,0.75828 -7.20782,1.24265 -2.6245,0.59545 -5.92651,0.62142 -10.1954,0.0802 -16.33163,-2.07065 -23.66424,-10.27802 -26.30275,-29.44062 -0.95548,-6.93937 -0.60975,-7.94428 2.74332,-7.9738 2.64788,-0.0233 9.75779,-3.15319 15.99794,-7.0425 3.39215,-2.11423 8.01497,-4.39268 10.27293,-5.06323 2.95375,-0.87716 6.09671,-2.96007 11.20373,-7.42495 8.11948,-7.09854 9.73523,-9.07489 5.26076,-6.43488 -4.1683,2.45934 -4.62049,2.31574 -1.84157,-0.58484 l 2.32117,-2.42277 -4.03657,1.27707 c -5.02297,1.58914 -6.73162,2.43306 -14.01514,6.92231 -6.67727,4.11557 -13.9264,6.62475 -19.13915,6.62475 -3.15335,0 -3.92891,0.39013 -6.16253,3.09988 l -2.55517,3.09988 v -2.5094 c 0,-1.38017 0.55761,-4.65024 1.23915,-7.26683 1.81238,-6.9582 11.77782,-33.50514 14.35499,-38.24024 1.28415,-2.3594 6.05703,-7.75035 11.36476,-12.83641 9.50012,-9.1034 9.49576,-9.50019 -0.0572,-5.20384 -3.91725,1.76173 -7.1381,4.31384 -13.77287,10.91319 -5.04641,5.01946 -9.41327,10.17513 -10.46528,12.35568 -0.99294,2.05808 -4.67913,11.41299 -8.19156,20.78869 l -6.38621,17.04672 -0.36667,12.60953 c -0.42711,14.687 0.57124,22.07027 3.95044,29.21559 4.53222,9.58337 11.06683,14.56304 21.63525,16.48706 7.57942,1.37986 10.67324,1.34136 15.85637,-0.19734 z m -71.40823,-43.08955 c 2.59151,-1.48723 3.74949,-2.64244 3.44477,-3.43652 -0.25246,-0.6579 0.19402,-4.47 0.99216,-8.47134 2.35206,-11.7915 0.71388,-39.46066 -3.4097,-57.59067 -1.94044,-8.53146 -3.36718,-11.63479 -5.34903,-11.63479 -2.81493,0 -10.11157,3.15653 -13.3937,5.79411 -1.72562,1.38675 -3.25298,2.52189 -3.39414,2.52253 -0.14115,5.8e-4 -0.13614,-5.61232 0.0111,-12.47322 0.14728,-6.8609 0.0689,-12.47437 -0.17414,-12.47437 -0.24307,0 -3.35715,1.28464 -6.92019,2.85475 l -6.47823,2.85474 -0.57918,14.39987 c -0.65093,16.18423 -1.94792,25.01988 -6.11442,41.65426 -1.57806,6.30025 -2.86919,11.8234 -2.86919,12.27367 0,1.29553 14.98356,-6.57376 15.54418,-8.16372 1.12061,-3.1782 11.17787,-26.24342 13.04504,-29.91742 l 2.00239,-3.94004 0.92691,3.44229 c 2.96412,11.00787 4.99393,40.81517 3.44621,50.60677 -1.80744,11.43477 -1.97677,14.46737 -0.88151,15.78708 0.93511,1.12674 1.33677,1.09474 3.64881,-0.29076 1.42891,-0.85628 4.35473,-2.56503 6.50182,-3.79722 z m -96.20558,-48.93938 6.65238,-3.50555 4.04684,-8.23959 c 5.05682,-10.29596 5.39461,-12.65312 6.07481,-42.38969 l 0.53041,-23.188201 -5.7418,3.159781 c -3.15799,1.73788 -6.20955,3.51832 -6.78124,3.95654 -0.76088,0.58324 -1.03943,4.65706 -1.03943,15.20174 0,16.8672 -1.25506,33.9554 -2.93175,39.91697 -1.40421,4.99276 -4.59524,12.17192 -7.08871,15.94808 -0.98149,1.48639 -1.46713,2.68969 -1.0792,2.674 0.38792,-0.0157 3.69888,-1.60602 7.35769,-3.53408 z M 85.798474,141.31949 c 2.626526,-1.935 3.767002,-3.22107 3.005462,-3.38912 -0.674993,-0.14896 -1.042377,-0.56996 -0.816413,-0.93557 0.225965,-0.36562 -0.985592,-0.88913 -2.692353,-1.16337 C 81.141039,135.16397 68.518055,127.81848 60.083737,121.16055 38.715341,104.29265 31.71452,85.684257 35.489759,55.789053 36.933468,44.356666 43.436736,22.7312 45.691156,21.866096 c 0.712843,-0.273542 7.655231,-0.49735 15.427537,-0.49735 h 14.131459 l 5.134012,-3.949851 5.13401,-3.949851 -17.403657,-0.225212 c -19.993381,-0.258723 -22.925349,0.313386 -28.997375,5.658196 -4.344496,3.824181 -6.268534,7.621218 -10.730588,21.17654 -3.797904,11.537693 -5.616215,23.372934 -5.621224,36.588094 -0.0036,9.396298 1.457974,17.325871 4.717566,25.595198 6.205786,15.74358 37.911589,42.13763 50.654016,42.16781 2.662973,0.007 4.374296,-0.68839 7.661562,-3.11018 z M 146.83208,76.768603 c 0.87324,-1.334301 0.77677,-5.861067 -0.17846,-8.373502 -0.44817,-1.178774 -1.69837,-2.545779 -2.77821,-3.037791 -1.71022,-0.779223 -2.58278,-0.431344 -6.76735,2.698067 l -4.80397,3.592633 0.48675,4.656952 c 0.82223,7.86676 0.69379,7.791456 7.47951,4.384705 3.27294,-1.643169 6.22572,-3.407646 6.56173,-3.921064 z"
       id="path3776"
       inkscape:connector-curvature="0" />
    <path
       style="opacity:0.4;vector-effect:none;fill:#ffeeaa;fill-opacity:1;stroke-width:8.16326523;stroke-linecap:butt;stroke-linejoin:miter;stroke-miterlimit:4;stroke-dasharray:none;stroke-dashoffset:0;stroke-opacity:1"
       d="m 58.959046,1040.6006 c -0.998904,-4.9945 -1.816189,-55.91922 -1.816189,-113.16603 V 823.34945 l 13.571429,0.87083 13.571428,0.87083 28.571426,83.79809 28.57143,83.79809 1.42857,-83.79809 1.42857,-83.79809 h 10 10 l 0.74784,110.71429 c 0.5917,87.5983 -0.005,110.7209 -2.85714,110.7457 -1.98274,0.018 -8.27168,0.8033 -13.97542,1.7466 l -10.37043,1.7152 -29.62957,-88.17518 -29.629561,-88.17518 -1.428572,87.14286 -1.428571,87.1429 -7.469525,0.8666 c -6.371925,0.7393 -7.736403,-0.4677 -9.285715,-8.2143 z"
       id="path3778"
       inkscape:connector-curvature="0"
       transform="scale(0.29104167)" />
    <path
       style="opacity:0.4;vector-effect:none;fill:#ffeeaa;fill-opacity:1;stroke-width:8.16326523;stroke-linecap:butt;stroke-linejoin:miter;stroke-miterlimit:4;stroke-dasharray:none;stroke-dashoffset:0;stroke-opacity:1"
       d="M 2.8571429,562.23397 V -2.0517435 H 565.71429 1128.5714 V 562.23397 1126.5197 H 565.71429 2.8571429 Z M 954.581,1081.5197 l 0.29529,-10.7143 2.84568,10.7143 c 1.57417,5.9269 4.63383,10.7143 6.84757,10.7143 3.0976,0 4.00189,-5.165 4.00189,-22.8572 0,-24.3512 -5.50709,-32.8815 -5.9948,-9.2857 l -0.28057,13.5714 -3.37657,-12.6476 c -5.7676,-21.604 -10.34806,-18.0081 -10.34806,8.1238 0,13.4921 1.18803,23.0953 2.85714,23.0953 1.57143,0 2.99003,-4.8215 3.15243,-10.7143 z m 31.13329,6.4286 c 0,-2.3572 -1.92858,-4.2858 -4.28572,-4.2858 -2.38094,0 -4.28571,-2.5396 -4.28571,-5.7142 0,-3.1746 1.90477,-5.7143 4.28571,-5.7143 2.35714,0 4.28572,-1.9286 4.28572,-4.2857 0,-2.3572 -1.92858,-4.2858 -4.28572,-4.2858 -2.35714,0 -4.28571,-1.9285 -4.28571,-4.2857 0,-2.3571 1.92857,-4.2857 4.28571,-4.2857 2.35714,0 4.28572,-1.9286 4.28572,-4.2857 0,-2.6667 -2.6984,-4.2857 -7.14286,-4.2857 -7.0238,0 -7.14286,0.3809 -7.14286,22.8571 0,22.4762 0.11914,22.8572 7.14286,22.8572 4.44446,0 7.14286,-1.6191 7.14286,-4.2857 z m 9.81265,-2.1429 1.90769,-6.4286 2.61917,6.4286 c 4.6951,11.5236 8.4587,6.98 4.2049,-5.0764 -4.55081,-12.8985 -1.7332,-25.6379 5.6706,-25.6379 3.461,0 4.3564,3.8518 4.3564,18.7401 0,11.7658 1.0633,18.0829 2.8572,16.9742 1.5714,-0.9712 2.8571,-9.4042 2.8571,-18.7401 0,-9.4114 1.273,-16.9742 2.8571,-16.9742 1.5715,0 2.8572,-1.9286 2.8572,-4.2857 0,-3.1009 -3.1848,-4.2857 -11.5206,-4.2857 -9.2666,0 -12.0332,1.2578 -14.1399,6.4286 l -2.61917,6.4285 -1.90769,-6.4285 c -1.04923,-3.5358 -3.18283,-6.4286 -4.74134,-6.4286 -1.72457,0 -1.96489,3.0752 -0.614,7.8571 2.73146,9.6689 2.70026,16.5446 -0.12971,28.5715 -2.49606,10.6081 2.4242,13.1711 5.48491,2.8571 z m 57.02456,1.9092 c 2.8816,-7.5095 1.9634,-41.1949 -1.1229,-41.1949 -1.6091,0 -2.8572,8.039 -2.8572,18.4028 0,17.8799 -3.3369,26.1992 -6.8435,17.0614 -0.9503,-2.4767 -1.7279,-11.4693 -1.7279,-19.9836 0,-8.5143 -1.2857,-15.4806 -2.8571,-15.4806 -3.6697,0 -3.7228,28.7799 -0.071,38.3854 3.1254,8.2205 12.7337,9.9644 15.4793,2.8095 z M 1024.167,910.71629 c 16.8351,-4.385 42.5274,-16.78689 55.7502,-26.91109 l 7.0601,-5.40563 -9.9172,0.97512 c -5.4545,0.53631 -16.3458,2.44665 -24.203,4.2452 -29.4368,6.73822 -70.85967,-2.4488 -91.00844,-20.18449 -23.07469,-20.31114 -35.33337,-49.75169 -36.86046,-88.5244 l -0.70249,-17.83554 14.28572,-3.35603 c 15.65811,-3.6784 44.68368,-17.61903 63.37197,-30.43674 6.5688,-4.50538 13.7438,-8.19158 15.9443,-8.19158 8.4905,0 30.4784,-13.73937 50.0947,-31.30234 11.2623,-10.08343 19.9808,-18.82968 19.3744,-19.43611 -0.6065,-0.60643 -6.3414,2.20448 -12.7444,6.24648 -16.7541,10.57643 -17.9868,8.85406 -3.1838,-4.44863 11.5929,-10.41797 11.958,-11.10834 3.7133,-7.02102 -5.0291,2.49317 -11.3459,4.53305 -14.0373,4.53305 -2.6915,0 -17.2196,7.36763 -32.2848,16.37249 -32.12397,19.2014 -50.7678,26.26277 -69.67974,26.39137 -12.08486,0.0823 -14.92506,1.36823 -23.86852,10.80757 l -10.15143,10.71429 1.66726,-17.7176 c 1.77603,-18.87343 34.75806,-112.81266 50.68846,-144.37057 8.61674,-17.06966 27.12837,-37.68612 56.80987,-63.26923 L 1050,489.0464 l -19.8321,7.38569 c -23.815,8.86897 -33.03281,15.50694 -63.35873,45.62622 -21.74643,21.5982 -36.23526,43.5798 -42.4888,64.46138 -1.17648,3.92857 -10.54083,29.64285 -20.80963,57.14285 l -18.67051,50 -1.32877,38.57143 c -3.829,111.14706 29.58625,157.15297 118.03114,162.50449 3.2055,0.194 13.3865,-1.61603 22.6244,-4.02217 z M 772.70631,766.41883 c 19.18038,-10.97417 20.15869,-12.04057 20.31426,-22.14286 0.09,-5.8374 1.95546,-21.8692 4.14566,-35.62623 9.28291,-58.30723 -12.70074,-224.9872 -29.67389,-224.9872 -9.77817,0 -39.57645,12.87012 -49.53568,21.39483 l -11.30135,9.67354 1.35443,-44.5634 c 1.1322,-37.25134 0.7034,-44.30911 -2.61337,-43.01362 -2.18228,0.85237 -13.10214,5.64688 -24.26634,10.65442 l -20.29854,9.10466 -1.79943,53.37477 c -0.98966,29.35615 -3.17769,59.16052 -4.86229,66.23195 -1.68457,7.07142 -3.01017,15.68628 -2.94577,19.14411 0.0643,3.45783 -1.16989,7.0824 -2.74291,8.05457 -1.573,0.97217 -2.21998,2.8032 -1.43772,4.06894 0.78229,1.26575 -2.9534,20.13455 -8.30148,41.93066 -5.34812,21.79612 -9.08158,40.27154 -8.29663,41.05649 0.78497,0.78497 11.94488,-4.08266 24.79985,-10.81692 l 23.37266,-12.24414 26.86254,-61.56769 c 17.07175,-39.12762 27.65006,-60.16045 29.0232,-57.70677 4.09603,7.31917 10.78635,49.6132 14.15912,89.50932 3.04846,36.05968 2.69206,79.87234 -0.83669,102.85714 -6.27534,40.87517 -6.11325,47.14286 1.21926,47.14286 1.93066,0 12.57814,-5.18826 23.66111,-11.52943 z M 448.62589,595.06374 c 20.37111,-10.2424 23.71557,-13.10531 31.572,-27.02611 4.83297,-8.5636 8.66811,-16.27903 8.52251,-17.14543 -0.14571,-0.86637 1.94114,-5.74034 4.63723,-10.83103 5.84963,-11.04506 6.14791,-12.21914 9.61068,-37.8272 3.54169,-26.19154 6.75549,-178.12368 3.67706,-173.83194 -1.3062,1.82103 -11.37146,8.41248 -22.36728,14.64774 l -19.99238,11.33677 -1.90731,73.92372 c -1.04903,40.65805 -3.16983,82.92371 -4.71289,93.92371 -2.91071,20.7496 -18.00725,60.14429 -28.92211,75.4728 -3.45146,4.84709 -5.51643,8.81292 -4.58883,8.81292 0.9276,0 11.93969,-5.15518 24.47132,-11.45595 z M 289.09937,489.65617 c 14.03803,-8.90266 20.55509,-15.86597 11.76332,-12.5688 -4.52372,1.69652 -4.6726,1.34586 -1.22715,-2.88988 3.47337,-4.27 3.147,-4.82092 -2.85714,-4.82292 -19.60472,-0.006 -80.74505,-38.39394 -114.82878,-72.09614 -47.46508,-46.93377 -64.88168,-88.09877 -64.75098,-153.04223 0.10617,-52.75551 11.67966,-110.34573 31.43918,-156.442835 l 5.31951,-12.409906 52.12657,-0.149628 c 48.14807,-0.138195 52.59267,-0.58748 58.2333,-5.886583 3.3587,-3.155334 6.6542,-5.387377 7.32333,-4.960097 0.66914,0.427277 5.71661,-3.491103 11.21661,-8.707517 l 10,-9.484392 -64.28571,0.876509 C 165.2732,47.934794 164.06627,48.064856 150,55.538979 c -18.47478,9.816583 -27.50091,19.702072 -38.07042,41.694992 -4.72005,9.821429 -8.10645,17.857139 -7.52534,17.857139 0.98465,0 -5.086343,18.91747 -9.169131,28.57143 -0.996866,2.35715 -2.11232,5.57143 -2.478786,7.14286 -0.366466,1.57143 -2.218017,8.57255 -4.11456,15.55804 -6.426277,23.66977 -8.656254,41.48094 -10.39336,83.01339 -1.50038,35.87248 -0.945474,44.72268 4.137614,65.99094 11.236894,47.01649 27.871813,73.67346 71.261783,114.19492 37.20537,34.74571 92.26916,68.38557 111.93769,68.38557 6.61206,0 15.23171,-3.03969 23.51388,-8.29209 z M 503.77031,263.4289 c 4.8434,-7.99762 -0.4234,-30.74229 -8.31631,-35.91391 -6.78623,-4.44652 -7.61889,-4.20115 -23.38823,6.89222 -18.30417,12.87656 -19.65837,16.44477 -14.91411,39.29766 l 3.26634,15.7339 20.30769,-10.74526 c 11.16922,-5.90989 21.53931,-12.77896 23.04462,-15.26461 z"
       id="path3780"
       inkscape:connector-curvature="0"
       transform="scale(0.29104167)" />
    <path
       style="opacity:0.4;vector-effect:none;fill:#ffeeaa;fill-opacity:1;stroke-width:8.16326523;stroke-linecap:butt;stroke-linejoin:miter;stroke-miterlimit:4;stroke-dasharray:none;stroke-dashoffset:0;stroke-opacity:1"
       d="M 2.8571429,563.66966 V -2.0517435 H 565.72137 1128.5856 L 1127.8642,562.94826 1127.1429,1127.9483 565,1128.6697 2.8571429,1129.3911 Z m 951.7896271,517.85004 0.36106,-10.7143 2.99997,10.7143 c 5.2414,18.7193 10.56363,13.4061 10.56363,-10.5457 0,-23.4825 -5.53277,-33.6823 -5.9948,-11.0515 l -0.28057,13.74 -3.37657,-12.6476 c -5.7676,-21.604 -10.34806,-18.0081 -10.34806,8.1238 0,13.4921 1.18803,23.0953 2.85714,23.0953 1.57143,0 3.01963,-4.8215 3.2182,-10.7143 z m 31.06752,6.4286 c 0,-2.3572 -1.92858,-4.2858 -4.28572,-4.2858 -2.38094,0 -4.28571,-2.5396 -4.28571,-5.7142 0,-3.1746 1.90477,-5.7143 4.28571,-5.7143 2.35714,0 4.28572,-1.9286 4.28572,-4.2857 0,-2.3572 -1.92858,-4.2858 -4.28572,-4.2858 -2.35714,0 -4.28571,-1.9285 -4.28571,-4.2857 0,-2.3571 1.92857,-4.2857 4.28571,-4.2857 2.35714,0 4.28572,-1.9286 4.28572,-4.2857 0,-2.6667 -2.6984,-4.2857 -7.14286,-4.2857 -7.0238,0 -7.14286,0.3809 -7.14286,22.8571 0,22.4762 0.11914,22.8572 7.14286,22.8572 4.44446,0 7.14286,-1.6191 7.14286,-4.2857 z m 8.57142,-3.0258 c 0,-6.147 4.82503,-4.969 6.54219,1.5972 0.8218,3.1428 2.8433,5.7143 4.4922,5.7143 1.9167,0 1.5339,-4.1493 -1.0614,-11.505 -4.55081,-12.8985 -1.7332,-25.6379 5.6706,-25.6379 3.4183,0 4.4769,4.1532 4.916,19.2857 l 0.5596,19.2857 0.9995,-19.2857 c 0.7521,-14.5106 2.0283,-19.2857 5.1547,-19.2857 2.2854,0 4.1552,-1.9286 4.1552,-4.2857 0,-3.1009 -3.1848,-4.2857 -11.5206,-4.2857 -9.2666,0 -12.0332,1.2578 -14.1399,6.4286 l -2.61917,6.4285 -1.90769,-6.4285 c -1.04923,-3.5358 -3.18283,-6.4286 -4.74134,-6.4286 -1.72457,0 -1.96489,3.0752 -0.614,7.8571 2.75129,9.7391 2.7002,16.526 -0.21857,29.0157 -1.65857,7.0975 -1.38006,9.1777 1.0294,7.6885 1.81674,-1.1228 3.30314,-3.8941 3.30314,-6.1585 z m 57.04239,1.785 c 3.7972,-7.0951 3.8799,-40.1878 0.1005,-40.1878 -1.6091,0 -2.8572,8.039 -2.8572,18.4028 0,17.8799 -3.3369,26.1992 -6.8435,17.0614 -0.9503,-2.4767 -1.7279,-11.4693 -1.7279,-19.9836 0,-8.5143 -1.2857,-15.4806 -2.8571,-15.4806 -3.6697,0 -3.7228,28.7799 -0.071,38.3854 3.3009,8.6822 10.113,9.5435 14.2559,1.8024 z M 1024.167,910.71629 c 16.795,-4.37455 42.5245,-16.78386 55.6661,-26.8476 l 6.9759,-5.34215 -8.4045,0.72372 c -4.6225,0.39803 -15.7107,2.26965 -24.6405,4.15914 -18.3455,3.88183 -54.61506,0.3302 -72.365,-7.0862 -13.40529,-5.60109 -31.54094,-22.27866 -39.91666,-36.7074 -8.63631,-14.87763 -15.24768,-40.87203 -16.34097,-64.24891 l -0.85566,-18.29566 14.59498,-3.34686 c 14.8642,-3.4086 43.0756,-16.84268 61.11931,-29.10463 5.5,-3.73763 15.0873,-8.1746 21.3051,-9.85994 13.9583,-3.7834 28.8548,-14.1604 52.9806,-36.9066 16.8122,-15.85077 17.4888,-16.90294 7.1429,-11.10709 -6.2857,3.52129 -12.65,7.48229 -14.1429,8.80226 -1.4928,1.31994 -4.0643,2.36152 -5.7143,2.31463 -1.65,-0.0469 2.7857,-5.11366 9.8572,-11.25949 l 12.8571,-11.17422 -18.5714,6.58542 C 1055.5,665.63669 1039.4286,673.3294 1030,679.10966 999.42923,697.85123 984.9308,703.68477 964.14683,705.60609 946.13486,707.27117 943.42117,708.3822 935,717.53923 l -9.28571,10.09711 0.034,-9.84403 c 0.0489,-14.17488 5.34842,-32.14002 25.66057,-86.98691 28.20445,-76.15774 33.63885,-84.96774 73.95204,-119.88757 12.6276,-10.93817 22.6085,-20.23837 22.1797,-20.66712 -0.4287,-0.42874 -9.4789,2.67203 -20.1115,6.89058 -32.82144,13.02211 -77.96587,55.52791 -93.4095,87.94982 -10.37506,21.78112 -44.24357,113.44343 -48.10163,130.18306 -4.31237,18.71089 -3.63106,83.80043 1.11143,106.17892 13.0818,61.72948 46.7882,89.18754 114.5133,93.28537 3.2055,0.194 13.3865,-1.61603 22.6244,-4.02217 z M 792.41009,750.67066 c -0.84495,-2.20189 0.70562,-16.4546 3.44571,-31.67269 4.02611,-22.36063 4.61423,-35.94211 3.06529,-70.78806 -3.0174,-67.88137 -15.86063,-143.86174 -27.31435,-161.59154 -4.00617,-6.20134 -38.58685,5.54534 -53.23368,18.08292 l -11.2302,9.61294 1.0294,-44.32389 c 0.84805,-36.51483 0.34468,-44.05631 -2.85715,-42.80525 -2.1376,0.83522 -13.02622,5.61805 -24.19691,10.62854 l -20.3104,9.10991 -1.60834,50.51237 c -1.74117,54.68366 -5.38069,79.8126 -20.69115,142.86092 -5.46528,22.506 -9.93688,41.53083 -9.93688,42.27737 0,0.74654 11.39406,-4.52743 25.32011,-11.71997 l 25.32012,-13.07732 13.52128,-32.05717 c 22.38632,-53.07491 39.51306,-88.09691 41.90983,-85.70014 3.31092,3.31091 10.594,48.69771 13.88043,86.50009 4.03863,46.4546 3.58731,81.64777 -1.37986,107.6058 -5.07374,26.51491 -5.4142,38.69477 -1.19948,42.90948 4.35691,4.35692 48.6182,-20.75634 46.46623,-26.36431 z M 448.56777,595.09294 c 12.49969,-6.28471 24.68034,-14.4084 27.06814,-18.05268 2.38783,-3.64426 9.42189,-18.33937 15.63126,-32.65577 11.18043,-25.7778 11.3208,-26.55055 14.49589,-79.80446 1.76337,-29.57606 2.7952,-72.04383 2.29297,-94.37283 l -0.91317,-40.59823 -21.72246,12.59472 -21.72246,12.59468 -1.72143,75.14637 c -0.9468,41.33052 -3.03497,83.653 -4.6404,94.05 -3.11517,20.17455 -18.24565,59.18092 -28.59271,73.71203 -3.45146,4.84709 -5.51643,8.81292 -4.58883,8.81292 0.9276,0 11.91354,-5.14203 24.4132,-11.42675 z M 294.48397,486.21283 c 10.10906,-7.64589 13.03472,-10.98706 8.39557,-9.58789 -6.37234,1.92195 -6.7108,1.654 -3.22157,-2.55025 3.43129,-4.13449 3.08597,-4.69812 -2.87957,-4.70012 -16.59391,-0.006 -68.0179,-30.38997 -102.85504,-60.77308 -21.43783,-18.69695 -48.85836,-51.84078 -58.14825,-70.28512 -9.90748,-19.67054 -18.63494,-62.63427 -18.57647,-91.44876 0.10633,-52.40463 12.42197,-114.70889 31.44833,-159.095576 l 5.43567,-12.68092 h 51.77141 51.7714 L 274.93487,61.519685 292.24429,47.948256 278.265,47.030596 c -7.68861,-0.504711 -36.47929,-0.504711 -63.97929,0 -45.85469,0.84158 -51.06593,1.471852 -62.85714,7.602243 -27.10093,14.0901 -34.10801,24.823635 -53.457441,81.886851 -21.304652,62.82932 -26.721198,134.60811 -13.95532,184.93268 7.914122,31.1984 14.76674,45.85103 31.837041,68.07563 37.92127,49.37146 120.16638,108.42026 151.01128,108.42026 9.75074,0 15.12029,-2.28146 27.61984,-11.73543 z m 210.09134,-223.4627 c 3.39223,-10.68796 -1.70422,-30.37529 -9.12131,-35.23514 -6.78623,-4.44652 -7.61889,-4.20115 -23.38823,6.89222 -18.28366,12.86213 -19.65577,16.45723 -14.94383,39.15459 l 3.23663,15.59083 21.25677,-10.51814 c 11.98566,-5.93066 21.99963,-12.85861 22.95997,-15.88436 z"
       id="path3782"
       inkscape:connector-curvature="0"
       transform="scale(0.29104167)" />
    <path
       style="opacity:0.4;vector-effect:none;fill:#ffeeaa;fill-opacity:1;stroke-width:8.16326523;stroke-linecap:butt;stroke-linejoin:miter;stroke-miterlimit:4;stroke-dasharray:none;stroke-dashoffset:0;stroke-opacity:1"
       d="M 2.8571429,563.66966 V -2.0517435 H 565.72137 1128.5856 L 1127.8642,562.94826 1127.1429,1127.9483 565,1128.6697 2.8571429,1129.3911 Z m 951.7896271,517.85004 0.36106,-10.7143 2.99997,10.7143 c 5.2414,18.7193 10.56363,13.4061 10.56363,-10.5457 0,-23.4825 -5.53277,-33.6823 -5.9948,-11.0515 l -0.28057,13.74 -3.37657,-12.6476 c -5.7676,-21.604 -10.34806,-18.0081 -10.34806,8.1238 0,13.4921 1.18803,23.0953 2.85714,23.0953 1.57143,0 3.01963,-4.8215 3.2182,-10.7143 z m 31.06752,6.4286 c 0,-2.3572 -1.92858,-4.2858 -4.28572,-4.2858 -2.38094,0 -4.28571,-2.5396 -4.28571,-5.7142 0,-3.1746 1.90477,-5.7143 4.28571,-5.7143 2.35714,0 4.28572,-1.9286 4.28572,-4.2857 0,-2.3572 -1.92858,-4.2858 -4.28572,-4.2858 -2.35714,0 -4.28571,-1.9285 -4.28571,-4.2857 0,-2.3571 1.92857,-4.2857 4.28571,-4.2857 2.35714,0 4.28572,-1.9286 4.28572,-4.2857 0,-2.6667 -2.6984,-4.2857 -7.14286,-4.2857 -7.0238,0 -7.14286,0.3809 -7.14286,22.8571 0,22.4762 0.11914,22.8572 7.14286,22.8572 4.44446,0 7.14286,-1.6191 7.14286,-4.2857 z m 8.57142,-3.0258 c 0,-6.147 4.82503,-4.969 6.54219,1.5972 0.8218,3.1428 2.8433,5.7143 4.4922,5.7143 1.9167,0 1.5339,-4.1493 -1.0614,-11.505 -4.55081,-12.8985 -1.7332,-25.6379 5.6706,-25.6379 3.4183,0 4.4769,4.1532 4.916,19.2857 l 0.5596,19.2857 0.9995,-19.2857 c 0.7521,-14.5106 2.0283,-19.2857 5.1547,-19.2857 2.2854,0 4.1552,-1.9286 4.1552,-4.2857 0,-3.1009 -3.1848,-4.2857 -11.5206,-4.2857 -9.2666,0 -12.0332,1.2578 -14.1399,6.4286 l -2.61917,6.4285 -1.90769,-6.4285 c -1.04923,-3.5358 -3.18283,-6.4286 -4.74134,-6.4286 -1.72457,0 -1.96489,3.0752 -0.614,7.8571 2.75129,9.7391 2.7002,16.526 -0.21857,29.0157 -1.65857,7.0975 -1.38006,9.1777 1.0294,7.6885 1.81674,-1.1228 3.30314,-3.8941 3.30314,-6.1585 z m 57.04239,1.785 c 3.7972,-7.0951 3.8799,-40.1878 0.1005,-40.1878 -1.6091,0 -2.8572,8.039 -2.8572,18.4028 0,17.8799 -3.3369,26.1992 -6.8435,17.0614 -0.9503,-2.4767 -1.7279,-11.4693 -1.7279,-19.9836 0,-8.5143 -1.2857,-15.4806 -2.8571,-15.4806 -3.6697,0 -3.7228,28.7799 -0.071,38.3854 3.3009,8.6822 10.113,9.5435 14.2559,1.8024 z m -22.3434,-177.2269 c 15.7378,-4.86266 47.6045,-21.45257 54.8464,-28.55317 3.022,-2.96306 -9.0391,-1.96743 -30.0671,2.48197 -20.9979,4.44303 -57.85991,-0.23971 -76.58663,-9.72937 -13.919,-7.05329 -31.08728,-24.04943 -38.21383,-37.83066 -6.46045,-12.49314 -12.76103,-40.168 -13.76954,-60.48183 l -0.90829,-18.29503 16.5796,-3.81591 c 15.92643,-3.66557 28.12826,-9.53174 56.57458,-27.19886 7.23481,-4.49331 19.44901,-10.04634 27.14281,-12.34008 10.199,-3.04063 21.1486,-10.43989 40.4173,-27.31203 14.5357,-12.72789 26.4286,-23.79966 26.4286,-24.60394 0,-1.51203 -19.3395,9.49962 -24.1429,13.74668 -1.4928,1.31994 -4.0643,2.3964 -5.7143,2.39217 -1.65,-0.003 2.7857,-5.12763 9.8572,-11.38523 l 12.8571,-11.37751 -10.6225,4.24237 c -5.8424,2.33332 -12.6822,4.24237 -15.1995,4.24237 -2.5173,0 -9.9515,3.62137 -16.5203,8.04749 -34.3778,23.16388 -62.86746,34.7052 -85.84377,34.77574 -9.06057,0.0286 -12.77954,1.92952 -20.71429,10.59226 l -9.67105,10.55831 0.034,-9.84403 c 0.0489,-14.17488 5.34842,-32.14002 25.66057,-86.98691 27.9764,-75.54194 34.3966,-85.85537 75.51754,-121.3116 11.7716,-10.14994 21.0309,-18.8264 20.5763,-19.28097 -1.9089,-1.90897 -38.3017,14.58823 -47.5026,21.53337 -5.50001,4.1516 -19.88893,16.98686 -31.97536,28.52283 -26.1396,24.94906 -33.86328,39.19223 -60.71565,111.96494 -23.23289,62.96363 -24.29718,67.86389 -24.382,112.26332 -0.17658,92.35568 28.68882,138.0326 93.18105,147.451 26.37566,3.85185 33.49986,3.5194 52.87666,-2.46769 z M 791.9398,750.61846 c -0.50457,-2.62709 1.29109,-17.04203 3.99029,-32.03315 12.04022,-66.87 -9.53975,-234.92277 -30.16683,-234.92277 -9.87395,0 -36.99206,12.138 -47.8138,21.40132 l -10.8066,9.25037 1.0294,-44.32389 c 0.84805,-36.51483 0.34468,-44.05631 -2.85715,-42.80525 -2.1376,0.83522 -13.02622,5.61805 -24.19691,10.62854 l -20.3104,9.10991 -1.6198,50.51237 c -1.76146,54.93032 -6.02046,84.15803 -20.89149,143.36949 -5.328,21.21429 -9.69577,39.59626 -9.70617,40.8488 -0.0114,1.25254 11.37515,-3.60743 25.3012,-10.79997 l 25.32012,-13.07732 13.52128,-32.05717 c 21.6926,-51.43023 39.49612,-88.13814 41.5766,-85.72408 5.92132,6.8706 13.68149,65.78883 15.9944,121.43534 1.41217,33.9752 0.78752,49.52291 -2.81603,70.08994 -8.85837,50.55872 -6.944,53.51475 23.4896,36.27106 15.45772,-8.75834 21.61038,-13.79897 20.96229,-17.17354 z M 448.41926,595.16763 c 12.41794,-6.24363 24.56485,-14.18854 26.99311,-17.65537 2.42826,-3.46683 9.51046,-17.96555 15.73823,-32.21937 11.12191,-25.45535 11.38069,-26.83032 14.55594,-77.34463 1.778,-28.28572 2.82852,-70.98329 2.33452,-94.88346 l -0.8982,-43.45491 -21.73572,12.60191 -21.73568,12.60191 -1.71329,73.71015 c -0.94231,40.54057 -2.98568,82.76754 -4.54086,93.83777 -2.94665,20.97508 -17.85685,60.15394 -28.67391,75.34514 -3.45146,4.84709 -5.51643,8.81292 -4.58883,8.81292 0.9276,0 11.84672,-5.10843 24.26469,-11.35206 z M 294.48397,486.21283 c 10.10906,-7.64589 13.03472,-10.98706 8.39557,-9.58789 -6.37234,1.92195 -6.7108,1.654 -3.22157,-2.55025 3.43129,-4.13449 3.08597,-4.69812 -2.87957,-4.70012 -15.62713,-0.006 -67.07463,-29.99046 -100.46867,-58.5564 -21.36771,-18.27837 -50.31714,-52.66586 -59.51442,-70.69403 -3.2486,-6.36777 -8.99938,-23.77008 -12.7795,-38.67177 -12.48385,-49.21277 -7.5108,-116.50632 13.31513,-180.17564 6.50988,-19.90209 13.03307,-38.435616 14.49598,-41.185616 2.38268,-4.47898 8.03356,-5 54.22919,-5 h 51.56934 l 17.27919,-13.571429 17.27919,-13.571429 -58.00904,-0.775 C 167.39818,46.281122 154.22744,48.684582 134.80905,65.306002 119.42069,78.477865 112.48,92.354245 96.331186,142.23397 c -27.079069,83.64062 -25.493712,168.75632 4.191024,225.01066 11.84928,22.45508 66.75406,78.4052 95.19208,97.00446 57.38914,37.53411 73.45868,41.10754 98.76968,21.96374 z m 210.09134,-223.4627 c 3.39223,-10.68796 -1.70422,-30.37529 -9.12131,-35.23514 -6.78934,-4.44856 -7.61166,-4.2027 -23.38823,6.99274 l -16.35148,11.60341 0.38828,14.42513 c 0.21343,7.93383 1.19726,17.64846 2.18603,21.58807 l 1.7978,7.16295 21.39286,-10.58546 c 12.08145,-5.97806 22.1342,-12.92117 23.09605,-15.9517 z"
       id="path3784"
       inkscape:connector-curvature="0"
       transform="scale(0.29104167)" />
    <path
       style="opacity:0.4;vector-effect:none;fill:#ffeeaa;fill-opacity:1;stroke-width:8.16326523;stroke-linecap:butt;stroke-linejoin:miter;stroke-miterlimit:4;stroke-dasharray:none;stroke-dashoffset:0;stroke-opacity:1"
       d="M 2.8571429,563.66966 V -2.0517435 H 565.72137 1128.5856 L 1127.8642,562.94826 1127.1429,1127.9483 565,1128.6697 2.8571429,1129.3911 Z m 951.7896271,517.85004 0.36106,-10.7143 2.99997,10.7143 c 5.2414,18.7193 10.56363,13.4061 10.56363,-10.5457 0,-23.4825 -5.53277,-33.6823 -5.9948,-11.0515 l -0.28057,13.74 -3.37657,-12.6476 c -5.7676,-21.604 -10.34806,-18.0081 -10.34806,8.1238 0,13.4921 1.18803,23.0953 2.85714,23.0953 1.57143,0 3.01963,-4.8215 3.2182,-10.7143 z m 31.06752,6.4286 c 0,-2.3572 -1.92858,-4.2858 -4.28572,-4.2858 -2.38094,0 -4.28571,-2.5396 -4.28571,-5.7142 0,-3.1746 1.90477,-5.7143 4.28571,-5.7143 2.35714,0 4.28572,-1.9286 4.28572,-4.2857 0,-2.3572 -1.92858,-4.2858 -4.28572,-4.2858 -2.35714,0 -4.28571,-1.9285 -4.28571,-4.2857 0,-2.3571 1.92857,-4.2857 4.28571,-4.2857 2.35714,0 4.28572,-1.9286 4.28572,-4.2857 0,-2.6667 -2.6984,-4.2857 -7.14286,-4.2857 -7.0238,0 -7.14286,0.3809 -7.14286,22.8571 0,22.4762 0.11914,22.8572 7.14286,22.8572 4.44446,0 7.14286,-1.6191 7.14286,-4.2857 z m 8.57142,-3.0258 c 0,-6.147 4.82503,-4.969 6.54219,1.5972 0.8218,3.1428 2.8433,5.7143 4.4922,5.7143 1.9167,0 1.5339,-4.1493 -1.0614,-11.505 -4.55081,-12.8985 -1.7332,-25.6379 5.6706,-25.6379 3.4192,0 4.4748,4.1492 4.9069,19.2857 l 0.5505,19.2857 1.0182,-18.0005 c 0.6998,-12.3744 2.3138,-18.4978 5.1637,-19.5914 8.987,-3.4487 4.275,-9.5509 -7.3749,-9.5509 -9.2666,0 -12.0332,1.2578 -14.1399,6.4286 l -2.61917,6.4285 -1.90769,-6.4285 c -1.04923,-3.5358 -3.18283,-6.4286 -4.74134,-6.4286 -1.72457,0 -1.96489,3.0752 -0.614,7.8571 2.75129,9.7391 2.7002,16.526 -0.21857,29.0157 -1.65857,7.0975 -1.38006,9.1777 1.0294,7.6885 1.81674,-1.1228 3.30314,-3.8941 3.30314,-6.1585 z m 57.04239,1.785 c 3.7972,-7.0951 3.8799,-40.1878 0.1005,-40.1878 -1.6091,0 -2.8572,8.039 -2.8572,18.4028 0,17.8799 -3.3369,26.1992 -6.8435,17.0614 -0.9503,-2.4767 -1.7279,-11.4693 -1.7279,-19.9836 0,-8.5143 -1.2857,-15.4806 -2.8571,-15.4806 -3.6697,0 -3.7228,28.7799 -0.071,38.3854 3.3009,8.6822 10.113,9.5435 14.2559,1.8024 z m -22.3434,-177.2269 c 15.8452,-4.89589 47.6258,-21.4696 54.9498,-28.65657 2.9618,-2.9064 -10.4771,-1.81849 -32.4352,2.62568 -20.3845,4.12569 -56.1885,-0.58077 -74.32193,-9.76968 -31.7092,-16.06826 -49.60463,-50.74629 -52.12546,-101.00934 l -0.7662,-15.27758 18.57143,-4.74714 c 10.88249,-2.78171 29.01757,-11.03937 43.80243,-19.94503 13.87703,-8.35883 31.41103,-17.03314 38.96433,-19.27625 9.9734,-2.96175 20.8615,-10.37649 39.769,-27.08232 14.3196,-12.65217 26.0357,-23.67874 26.0357,-24.50348 0,-1.53949 -19.2761,9.4064 -24.1429,13.70948 -1.4928,1.31994 -4.0643,2.3964 -5.7143,2.39217 -1.65,-0.003 2.7857,-5.12763 9.8572,-11.38523 l 12.8571,-11.37751 -10.6225,4.24237 c -5.8424,2.33332 -13.0423,4.24237 -15.9999,4.24237 -2.9576,0 -10.3917,3.5898 -16.5203,7.97735 -31.2274,22.35597 -61.83534,34.7772 -85.86589,34.84588 -10.2316,0.0291 -13.07111,1.50946 -20.61845,10.7482 l -8.75277,10.71429 -0.062,-10 c -0.086,-13.88203 4.94285,-30.99803 25.60305,-87.14286 27.64332,-75.12174 34.27935,-85.78729 75.47926,-121.3116 11.7716,-10.14994 21.0053,-18.85197 20.5195,-19.33783 -3.227,-3.22694 -44.1472,17.8924 -58.09653,29.9842 -44.64008,38.69572 -51.52451,49.78786 -81.9852,132.0938 -23.28166,62.90797 -24.35217,67.82589 -24.43708,112.26332 -0.18058,94.42682 27.84451,137.84491 95.36474,147.74525 24.04617,3.52583 31.69107,3.10932 50.69297,-2.76194 z M 791.9398,750.61846 c -0.50457,-2.62709 1.29109,-17.04203 3.99029,-32.03315 12.04022,-66.87 -9.53975,-234.92277 -30.16683,-234.92277 -9.87395,0 -36.99206,12.138 -47.8138,21.40132 l -10.8066,9.25037 1.0294,-44.32389 c 0.84805,-36.51483 0.34468,-44.05631 -2.85715,-42.80525 -2.1376,0.83522 -13.02622,5.61805 -24.19691,10.62854 l -20.3104,9.10991 -1.61834,50.51237 c -1.7202,53.69058 -6.77092,87.66715 -21.96926,147.78895 -4.74837,18.78357 -8.63686,35.12917 -8.64109,36.32351 -0.003,1.19434 11.29692,-3.506 25.11366,-10.44517 l 25.12137,-12.61671 20.73706,-48.12626 c 11.4054,-26.46943 23.75206,-53.90583 27.43703,-60.96974 l 6.69991,-12.84349 3.17506,11.79123 c 12.158,45.15137 17.78871,142.25586 10.62206,183.18271 -8.85369,50.56095 -6.94075,53.5144 23.49225,36.27106 15.45772,-8.75834 21.61038,-13.79897 20.96229,-17.17354 z M 448.41926,595.16763 c 12.41794,-6.24363 24.56485,-14.18854 26.99311,-17.65537 2.42826,-3.46683 9.51046,-17.96555 15.73823,-32.21937 11.12191,-25.45535 11.38069,-26.83032 14.55594,-77.34463 1.778,-28.28572 2.82852,-70.98329 2.33452,-94.88346 l -0.8982,-43.45491 -21.73572,12.60191 -21.73568,12.60191 -1.71329,73.71015 c -0.94231,40.54057 -2.98568,82.76754 -4.54086,93.83777 -2.94665,20.97508 -17.85685,60.15394 -28.67391,75.34514 -3.45146,4.84709 -5.51643,8.81292 -4.58883,8.81292 0.9276,0 11.84672,-5.10843 24.26469,-11.35206 z M 294.48397,486.21283 c 10.10906,-7.64589 13.03472,-10.98706 8.39557,-9.58789 -6.37234,1.92195 -6.7108,1.654 -3.22157,-2.55025 3.44557,-4.15169 3.0456,-4.69786 -3.44008,-4.69786 -7.92383,0 -39.49187,-15.4992 -64.78932,-31.81012 -36.25253,-23.37434 -79.63623,-68.04594 -94.63326,-97.44257 -3.2486,-6.36777 -8.99938,-23.77008 -12.7795,-38.67177 -13.01117,-51.29154 -7.47414,-118.55227 15.23598,-185.07794 l 13.60535,-39.854745 52.46779,-0.779994 52.4678,-0.779997 17.19554,-13.505718 17.19556,-13.50572 -58.00904,-0.775 C 167.39818,46.281122 154.22744,48.684582 134.80905,65.306002 119.42069,78.477865 112.48,92.354245 96.331186,142.23397 69.048497,226.50353 70.696129,310.70471 100.74222,367.6574 c 11.71017,22.19674 66.8536,78.17746 95.6326,97.08469 56.37415,37.03662 72.78132,40.62728 98.10915,21.47074 z m 210.09134,-223.4627 c 3.39223,-10.68796 -1.70422,-30.37529 -9.12131,-35.23514 -6.78863,-4.44808 -7.61331,-4.20234 -23.38823,6.96926 -16.10726,11.40698 -16.3492,11.78603 -16.19917,25.37911 0.0837,7.58955 1.06751,17.31475 2.18606,21.61155 l 2.03374,7.81238 21.39286,-10.58546 c 12.08145,-5.97806 22.1342,-12.92117 23.09605,-15.9517 z"
       id="path3786"
       inkscape:connector-curvature="0"
       transform="scale(0.29104167)" />
    <path
       style="opacity:0.4;vector-effect:none;fill:#ffeeaa;fill-opacity:1;stroke-width:8.16326523;stroke-linecap:butt;stroke-linejoin:miter;stroke-miterlimit:4;stroke-dasharray:none;stroke-dashoffset:0;stroke-opacity:1"
       d="M 2.8571429,563.66254 V -2.0517435 H 565.71429 1128.5714 V 563.66254 1129.3768 H 565.71429 2.8571429 Z m 951.7896271,517.85716 0.36106,-10.7143 2.99997,10.7143 c 5.2414,18.7193 10.56363,13.4061 10.56363,-10.5457 0,-23.4825 -5.53277,-33.6823 -5.9948,-11.0515 l -0.28057,13.74 -3.37657,-12.6476 c -5.7676,-21.604 -10.34806,-18.0081 -10.34806,8.1238 0,13.4921 1.18803,23.0953 2.85714,23.0953 1.57143,0 3.01963,-4.8215 3.2182,-10.7143 z m 31.06752,6.4286 c 0,-2.3572 -1.92858,-4.2858 -4.28572,-4.2858 -2.38094,0 -4.28571,-2.5396 -4.28571,-5.7142 0,-3.1746 1.90477,-5.7143 4.28571,-5.7143 2.35714,0 4.28572,-1.9286 4.28572,-4.2857 0,-2.3572 -1.92858,-4.2858 -4.28572,-4.2858 -2.35714,0 -4.28571,-1.9285 -4.28571,-4.2857 0,-2.3571 1.92857,-4.2857 4.28571,-4.2857 2.35714,0 4.28572,-1.9286 4.28572,-4.2857 0,-2.6667 -2.6984,-4.2857 -7.14286,-4.2857 -7.0238,0 -7.14286,0.3809 -7.14286,22.8571 0,22.4762 0.11914,22.8572 7.14286,22.8572 4.44446,0 7.14286,-1.6191 7.14286,-4.2857 z m 8.57142,-3.0258 c 0,-6.147 4.82503,-4.969 6.54219,1.5972 0.8218,3.1428 2.8433,5.7143 4.4922,5.7143 1.9167,0 1.5339,-4.1493 -1.0614,-11.505 -4.55081,-12.8985 -1.7332,-25.6379 5.6706,-25.6379 3.4682,0 4.3564,3.8838 4.3564,19.0476 0,22.4018 2.2077,23.2804 3.2116,1.2782 0.3829,-8.3896 2.3883,-16.9461 4.4565,-19.0143 6.6232,-6.6232 4.0636,-9.8829 -7.7601,-9.8829 -9.2666,0 -12.0332,1.2578 -14.1399,6.4286 l -2.61917,6.4285 -1.90769,-6.4285 c -1.04923,-3.5358 -3.18283,-6.4286 -4.74134,-6.4286 -1.72457,0 -1.96489,3.0752 -0.614,7.8571 2.75129,9.7391 2.7002,16.526 -0.21857,29.0157 -1.65857,7.0975 -1.38006,9.1777 1.0294,7.6885 1.81674,-1.1228 3.30314,-3.8941 3.30314,-6.1585 z m 58.19919,0.8829 c 2.8123,-10.4941 2.0382,-39.2857 -1.0563,-39.2857 -1.6091,0 -2.8572,8.039 -2.8572,18.4028 0,17.8799 -3.3369,26.1992 -6.8435,17.0614 -0.9503,-2.4767 -1.7279,-11.4693 -1.7279,-19.9836 0,-8.5143 -1.2857,-15.4806 -2.8571,-15.4806 -3.6697,0 -3.7228,28.7799 -0.071,38.3854 3.5092,9.2299 13.0314,9.7861 15.4127,0.9003 z m -23.5002,-176.3248 c 15.797,-4.88097 47.6163,-21.462 54.9032,-28.61 2.8477,-2.7934 -10.023,-1.73349 -32.3886,2.66723 -20.4383,4.02146 -56.32593,-0.73854 -74.32193,-9.8578 -14.09666,-7.14332 -31.10483,-24.08334 -38.4592,-38.30514 C 932.70351,823.7438 926.24311,794.53 925.16629,774.0934 l -0.88058,-16.712 18.57143,-4.74129 c 10.89637,-2.78182 28.99872,-11.02214 43.80243,-19.93917 13.87703,-8.35883 31.38213,-17.02457 38.90013,-19.25717 9.9362,-2.95071 20.7968,-10.37837 39.769,-27.19823 14.3549,-12.72643 26.0999,-23.7616 26.0999,-24.52257 0,-1.45406 -19.4753,9.69849 -24.1429,13.8254 -1.4928,1.31994 -4.0643,2.3964 -5.7143,2.39217 -1.65,-0.003 2.7857,-5.12763 9.8572,-11.38523 l 12.8571,-11.37751 -10.6225,4.24237 c -5.8424,2.33332 -13.0423,4.24237 -15.9999,4.24237 -2.9576,0 -10.3917,3.5898 -16.5203,7.97735 -31.2274,22.35597 -61.83534,34.7772 -85.86589,34.84588 -10.2316,0.0291 -13.07111,1.50946 -20.61845,10.7482 l -8.75277,10.71429 -0.062,-10 c -0.034,-5.5 1.6568,-16.42857 3.7574,-24.28572 4.8562,-18.1642 37.97348,-107.74457 45.41948,-122.85714 9.29254,-18.8604 26.13403,-38.88686 50.37523,-59.90194 12.6082,-10.93029 22.5526,-20.24455 22.0988,-20.6984 -0.4539,-0.45386 -10.6076,3.15905 -22.5639,8.02865 -18.2584,7.4364 -26.29287,13.15006 -50.18501,35.68869 -33.4098,31.51709 -39.08389,41.47166 -67.437,118.31157 -23.23289,62.96363 -24.29718,67.86389 -24.382,112.26332 -0.18058,94.42682 27.84451,137.84491 95.36474,147.74525 24.04617,3.52583 31.69107,3.10932 50.69297,-2.76194 z M 780.55603,762.43129 c 8.75154,-5.0224 12.87528,-9.09935 11.86548,-11.73086 -0.85122,-2.21826 0.6942,-16.48437 3.43429,-31.70246 12.11049,-67.26031 -9.38143,-235.33543 -30.09254,-235.33543 -9.87395,0 -36.99206,12.138 -47.8138,21.40132 l -10.8066,9.25037 1.0294,-44.32389 c 0.84805,-36.51483 0.34468,-44.05631 -2.85715,-42.80525 -2.1376,0.83522 -13.02622,5.61805 -24.19691,10.62854 l -20.3104,9.10991 -1.61834,50.51237 c -1.7202,53.69058 -6.77092,87.66715 -21.96926,147.78895 -4.74837,18.78357 -8.63686,35.12917 -8.64109,36.32351 -0.003,1.19434 11.29692,-3.506 25.11366,-10.44517 l 25.12137,-12.61671 20.73706,-48.12626 c 11.4054,-26.46943 23.75206,-53.90583 27.43703,-60.96974 l 6.69991,-12.84349 3.17506,11.79123 c 12.158,45.15137 17.78871,142.25586 10.62206,183.18271 -7.76677,44.35386 -5.46269,53.65406 10.86905,43.872 4.83372,-2.8952 14.82446,-8.72791 22.20172,-12.96165 z M 448.41926,595.16763 c 12.41794,-6.24363 24.56485,-14.18854 26.99311,-17.65537 2.42826,-3.46683 9.51046,-17.96555 15.73823,-32.21937 11.12191,-25.45535 11.38069,-26.83032 14.55594,-77.34463 1.778,-28.28572 2.82852,-70.98329 2.33452,-94.88346 l -0.8982,-43.45491 -21.73572,12.60191 -21.73568,12.60191 -1.71329,73.71015 c -0.94231,40.54057 -2.98568,82.76754 -4.54086,93.83777 -2.94665,20.97508 -17.85685,60.15394 -28.67391,75.34514 -3.45146,4.84709 -5.51643,8.81292 -4.58883,8.81292 0.9276,0 11.84672,-5.10843 24.26469,-11.35206 z M 294.48397,486.21283 c 10.10906,-7.64589 13.03472,-10.98706 8.39557,-9.58789 -6.37234,1.92195 -6.7108,1.654 -3.22157,-2.55025 3.44557,-4.15169 3.0456,-4.69786 -3.44008,-4.69786 -7.92383,0 -39.49187,-15.4992 -64.78932,-31.81012 -36.25253,-23.37434 -79.63623,-68.04594 -94.63326,-97.44257 -3.2486,-6.36777 -8.99938,-23.77008 -12.7795,-38.67177 -13.01117,-51.29154 -7.47414,-118.55227 15.23598,-185.07794 l 13.60535,-39.854745 52.46779,-0.779994 52.4678,-0.779997 17.19554,-13.505718 17.19556,-13.50572 -58.00904,-0.775 C 167.39818,46.281122 154.22744,48.684582 134.80905,65.306002 119.42069,78.477865 112.48,92.354245 96.331186,142.23397 69.048497,226.50353 70.696129,310.70471 100.74222,367.6574 c 11.71017,22.19674 66.8536,78.17746 95.6326,97.08469 56.37415,37.03662 72.78132,40.62728 98.10915,21.47074 z m 210.09134,-223.4627 c 3.39223,-10.68796 -1.70422,-30.37529 -9.12131,-35.23514 -6.78863,-4.44808 -7.61331,-4.20234 -23.38823,6.96926 -16.10726,11.40698 -16.3492,11.78603 -16.19917,25.37911 0.0837,7.58955 1.06751,17.31475 2.18606,21.61155 l 2.03374,7.81238 21.39286,-10.58546 c 12.08145,-5.97806 22.1342,-12.92117 23.09605,-15.9517 z"
       id="path3788"
       inkscape:connector-curvature="0"
       transform="scale(0.29104167)" />
    <text
       xml:space="preserve"
       style="font-style:normal;font-weight:normal;font-size:90.70528412px;line-height:1.25;font-family:sans-serif;letter-spacing:0px;word-spacing:0px;fill:#000000;fill-opacity:1;stroke:none;stroke-width:0.94484675"
       x="48.480171"
       y="250.75439"
       id="text3792"
       transform="scale(0.82346655,1.2143784)"><tspan
         sodipodi:role="line"
         id="tspan3790"
         x="48.480171"
         y="250.75439"
         style="stroke-width:0.94484675">JDRS</tspan></text>
    <text
       xml:space="preserve"
       style="font-style:normal;font-weight:normal;font-size:27.94000053px;line-height:1.25;font-family:sans-serif;letter-spacing:0px;word-spacing:0px;fill:#000000;fill-opacity:1;stroke:none;stroke-width:0.29104167"
       x="16.630953"
       y="239.62901"
       id="text3796"><tspan
         sodipodi:role="line"
         id="tspan3794"
         x="16.630953"
         y="264.34937"
         style="stroke-width:0.29104167"></tspan></text>
  </g>
  <g
     inkscape:groupmode="layer"
     id="layer2"
     inkscape:label="Layer 2">
    <path
       style="opacity:0.4;fill:#88aa00;stroke-width:0.30799133"
       id="path19"
       d="M 74.598588,21.812024 C 68.83882,21.701096 63.077637,21.702797 57.317115,21.694411 c -5.488769,0.201254 -11.021002,-0.293223 -16.497003,0.225507 -4.27677,1.042759 -10.878507,5.47794 7.417952,-5.092216 0.352511,-0.203652 -0.651984,0.502469 -0.947291,0.792745 -0.789689,0.776243 -1.08392,1.303784 -1.729878,2.239749 -1.525171,2.525154 -2.586665,5.336239 -3.498472,8.171904 -0.862558,2.724408 -1.767644,5.431822 -2.714888,8.12349 -1.372854,3.669051 -2.612296,7.388997 -3.45792,11.240232 -0.46856,2.313298 -0.545591,4.680948 -0.845181,7.020837 -0.489206,3.9186 -0.94828,7.833167 -1.209095,11.778204 -0.208351,3.296404 -0.239706,6.600476 -0.262691,9.902949 0.164415,3.752446 1.01377,7.422746 1.907328,11.03896 0.994534,4.28424 2.346221,8.432065 4.168461,12.386462 3.570176,6.460146 8.501274,11.799776 13.565622,16.903646 3.826741,3.57573 7.725536,7.1318 12.045205,10.01376 1.62514,1.08424 3.308851,2.06381 4.953698,3.11318 3.609304,2.24513 7.327318,4.28222 11.133618,6.11149 1.898495,0.93457 3.924702,1.25259 5.987601,1.34956 0.577775,0.0109 0.99622,0.097 1.536023,-0.16729 0.190634,-0.0933 0.687625,-0.51214 0.504767,-0.40231 -3.473117,2.08598 -6.919879,4.22224 -10.379818,6.33336 0,0 11.728696,-5.10108 11.728696,-5.10108 v 0 c -6.473579,4.10831 -8.027211,7.67228 -13.64905,7.22623 -2.14757,-0.22917 -4.227939,-0.76588 -6.172122,-1.80811 -3.767436,-1.94978 -7.483629,-4.01726 -11.073762,-6.32488 -1.639803,-1.07579 -3.314444,-2.09209 -4.92309,-3.22089 -4.293085,-3.01249 -8.176516,-6.64951 -12.030854,-10.26329 -5.193413,-5.19718 -10.281534,-10.61806 -14.030651,-17.15111 -1.898468,-4.01472 -3.314312,-8.230912 -4.295693,-12.614422 -0.965016,-3.705416 -1.864395,-7.462133 -2.168732,-11.306412 0.02252,-3.342789 0.101831,-6.685877 0.303091,-10.022307 0.269215,-3.945009 0.660634,-7.871008 1.0928,-11.796628 0.255834,-2.389328 0.413181,-4.78997 0.815587,-7.158463 0.828739,-3.91033 2.074895,-7.68528 3.422805,-11.421543 0.936771,-2.661048 1.763798,-5.360764 2.664679,-8.034528 0.864691,-2.946981 2.005931,-5.819814 3.39792,-8.522803 3.483185,-6.225931 10.077405,-10.498623 16.815326,-11.300662 5.43844,-0.18244 10.885517,0.113643 16.32576,0.0072 5.86097,-0.0084 11.722536,-0.0084 17.582791,-0.117613 0,0 -10.202066,7.964622 -10.202066,7.964622 z"
       inkscape:connector-curvature="0" />
    <path
       style="opacity:0.4;fill:#88aa00;stroke-width:0.36497006"
       id="path21"
       d="m 148.14142,95.962732 c -0.15944,8.737058 -0.19781,17.471708 -0.46235,26.206418 -0.1468,7.34901 -0.81544,14.66602 -1.22704,21.99897 -0.16656,3.20067 -0.0898,6.57552 -1.52542,9.44581 -1.47477,2.89316 -2.54841,6.02207 -3.83206,9.02598 -1.07157,2.54555 -2.49366,4.77551 -4.14804,6.86961 -0.0811,0.13351 -0.16265,0.26693 -0.24382,0.40039 -0.0115,-0.004 -0.0243,-0.009 -0.0365,-0.0131 0,0 -13.55697,6.61427 -13.55697,6.61427 v 0 c 0.0777,-0.29109 0.007,-0.0984 0.33854,-0.49702 0.55846,-0.98441 1.27168,-1.58533 1.95357,-2.44637 0.74309,-0.93834 0.96879,-1.5582 1.55529,-2.64996 0.28467,-0.52987 0.58032,-1.05231 0.87048,-1.57845 1.3951,-2.95526 2.47113,-6.06427 3.65056,-9.13014 0.0283,-0.0421 1.02191,-1.52401 1.02492,-1.53062 0.99096,-2.17541 0.72648,-4.94806 1.01745,-7.27518 0.47004,-7.36616 1.27064,-14.7056 1.48749,-22.09022 0.29806,-8.64366 0.38279,-17.28875 0.0997,-25.93581 0,0 13.03413,-7.414338 13.03413,-7.414338 z"
       inkscape:connector-curvature="0" />
    <path
       style="opacity:0.4;fill:#88aa00;stroke-width:0.26458332"
       id="path23"
       d="m 134.11626,84.0446 c -0.79933,-3.18038 -1.45124,-6.40948 -1.69317,-9.68305 0.0458,-0.99114 -0.0126,-1.13328 0.25327,-2.03891 0.0431,-0.14662 0.35182,-0.95883 0.54603,-1.06786 10.04719,-5.64051 6.66316,-6.93197 10.69995,-5.20175 1.5428,0.42274 2.04771,1.78641 2.35368,3.20771 0.19109,2.02179 0.66722,4.00537 0.77281,6.03465 0.0433,1.08694 -0.54898,1.82171 -1.1317,2.65207 0,0 -10.24892,4.71051 -10.24892,4.71051 v 0 c 0.27342,-1.03051 1.00685,-1.33594 1.38002,-2.25826 0.088,-1.97226 -0.53389,-3.88746 -0.67253,-5.84742 -0.20342,-1.13985 -0.45344,-1.90457 -1.7167,-2.06211 -3.94087,0.45544 0.0724,0.0365 9.06918,-5.32999 0.14096,-0.0841 -0.33998,-0.017 -0.48987,0.0499 -0.37337,0.16654 -0.63765,0.69466 -0.73844,1.03487 -0.0963,0.32503 -0.10748,0.6694 -0.16123,1.0041 0.0673,3.17854 0.72133,6.33567 1.60885,9.38108 0,0 -9.83122,5.41448 -9.83122,5.41448 z"
       inkscape:connector-curvature="0" />
    <path
       style="opacity:0.4;fill:#88aa00;stroke-width:0.34688729"
       id="path25"
       d="m 206.17597,124.11333 c -0.13723,7.68265 -0.20766,15.3562 -0.68394,23.03004 -0.84597,11.69756 -3.51695,23.21835 -6.02008,34.70945 -0.70073,2.98982 -1.49646,5.967 -2.11124,8.97245 -0.0711,0.34768 0.0112,0.73452 -0.17263,1.04882 -0.0845,0.14467 0.003,-0.52674 -0.16842,-0.46476 -4.54706,1.64698 -8.94709,3.59124 -13.42064,5.38686 3.34401,-7.83349 6.83149,-15.6214 10.25537,-23.42949 3.67733,-8.0413 7.22669,-16.20039 12.50398,-23.55778 4.36209,-5.27413 7.5495,-6.11221 16.96865,-9.26322 0.62487,-0.20904 0.90483,0.87798 1.23359,1.38941 0.80481,1.25204 1.6132,3.92326 2.02189,5.09532 2.88868,9.70962 4.11877,19.69409 5.0418,29.67039 0.56947,6.88757 0.82078,13.79138 0.96117,20.6947 0.32541,4.12858 -0.4117,8.18161 -1.21924,12.23104 -0.21098,2.95092 -2.15457,6.28918 -0.95915,9.21958 0.5306,0.45642 0.22829,0.3505 0.86222,0.40248 0,0 -13.19238,7.59423 -13.19238,7.59423 v 0 c -1.03601,-0.70636 -0.55114,-0.28587 -1.4195,-1.29193 -1.39615,-3.22931 0.2951,-6.68847 0.77964,-9.95627 0.79888,-3.97147 1.5417,-7.9565 1.32971,-12.00611 0.0543,-6.92931 -0.0343,-13.8621 -0.534,-20.77992 -0.81566,-9.85696 -1.96324,-19.73906 -5.12001,-29.26595 -0.39495,-0.97402 -0.76008,-1.95777 -1.18486,-2.92204 -0.23455,-0.53245 -0.45836,-1.07513 -0.79186,-1.56518 -0.11653,-0.17127 -0.71919,-0.26672 -0.52965,-0.37673 22.84262,-13.25825 13.69253,-8.17211 9.89023,-4.30519 -5.7124,7.1606 -9.30781,15.38092 -13.02702,23.44113 -6.97601,16.06283 2.26239,-5.30832 -4.24723,10.05918 -1.55381,3.66815 -3.34965,7.28395 -4.73975,11.00498 -0.26035,0.6969 -0.43714,1.41577 -0.65571,2.12365 -4.79653,2.52401 -9.4585,5.25672 -14.3896,7.57203 -0.2411,0.11317 -0.33572,-0.41274 -0.34716,-0.65266 -0.019,-0.39817 0.15523,-0.7858 0.26001,-1.17354 0.82186,-3.04156 1.74221,-6.06542 2.54459,-9.11176 2.69641,-11.4103 5.41126,-22.88365 6.14365,-34.54708 0.40384,-7.57283 0.46605,-15.14715 0.17123,-22.72535 0,0 13.96634,-6.25078 13.96634,-6.25078 z"
       inkscape:connector-curvature="0" />
    <path
       style="opacity:0.4;fill:#88aa00;stroke-width:0.31508476"
       id="path27"
       d="m 306.04362,142.16281 c -5.79761,4.18956 -11.02955,9.03991 -16.01649,14.12646 -4.25577,4.18591 -6.87896,9.30649 -8.88096,14.81097 -2.13264,6.78237 -4.8069,13.3785 -7.32682,20.0264 -1.26962,3.57266 -2.86638,7.03797 -3.76508,10.73164 -0.58263,2.39456 -0.63641,3.2683 -0.97599,5.73758 -0.42305,4.88945 -0.77373,9.81847 -0.5807,14.72979 0.13922,3.54233 0.40506,5.07042 0.84274,8.58983 0.79061,5.04206 2.08153,10.07316 4.78165,14.48167 1.19724,1.95476 2.16054,2.92606 3.63961,4.62308 2.96542,3.20156 6.67433,5.24232 10.8536,6.42982 3.52508,0.82048 7.09842,1.28347 10.70682,1.52844 2.49061,0.29532 4.57348,0.10137 6.99229,-0.35739 0.27834,-0.0433 0.56414,-0.0532 0.835,-0.12986 0.46369,-0.13117 0.8783,-0.39836 1.33594,-0.54874 0.72383,-0.23786 1.37614,-0.30588 2.05765,-0.65717 0.62956,-0.39332 1.40673,-0.36787 2.08427,-0.5951 0.21567,-0.0723 0.80515,-0.42047 0.60721,-0.30928 -11.58055,6.50613 -14.56562,8.49062 -10.52238,5.82791 0.5683,-0.38889 1.10773,-0.81153 1.6813,-1.19273 0,0 12.55097,-4.94239 12.55097,-4.94239 v 0 c -0.53707,0.45951 -1.15421,0.7558 -1.66699,1.24599 -4.73184,3.4799 -9.80382,6.38957 -15.35888,8.18402 -1.45847,0.3778 -2.85663,0.96548 -4.36904,1.11828 -2.3614,0.36596 -4.72541,0.23545 -7.10087,0.0222 -3.66064,-0.32416 -7.30374,-0.8283 -10.85651,-1.78661 -4.31137,-1.44058 -8.13282,-3.69903 -11.15154,-7.12507 -1.5011,-1.80431 -2.49246,-2.86267 -3.71646,-4.91842 -2.72231,-4.57216 -4.04979,-9.74293 -4.89067,-14.93385 -0.43872,-3.36701 -0.75746,-5.31188 -0.93925,-8.70307 -0.26469,-4.93762 0.044,-9.89591 0.36676,-14.8218 0.26458,-2.28208 0.36313,-3.64918 0.8519,-5.88198 0.82613,-3.77396 2.46328,-7.26994 3.79154,-10.88106 2.54532,-6.61367 5.29758,-13.16445 7.28671,-19.96848 1.9448,-5.7631 4.38919,-10.93365 8.74222,-15.36714 4.91642,-5.03811 10.01133,-9.88819 15.614,-14.19061 0,0 12.49645,-4.90342 12.49645,-4.90342 z"
       inkscape:connector-curvature="0" />
    <path
       style="opacity:0.4;fill:#88aa00;stroke-width:0.46312249"
       id="path29"
       d="m 274.71028,206.20987 c 4.83996,0.1331 9.71275,-0.60029 14.42894,-2.26998 0.69258,-0.30764 1.39732,-0.5574 2.07776,-0.92291 1.20032,-0.6448 2.34349,-1.51895 3.53614,-2.19618 1.4844,-0.84291 3.00131,-1.47844 4.4847,-2.32376 2.18022,-1.3533 4.22055,-3.21582 6.42898,-4.44041 1.8801,-1.05311 3.93769,-0.48775 5.82608,-1.31992 1.77875,-0.79042 3.44684,-2.00343 5.12243,-3.18755 -4.31694,3.7657 -8.63386,7.53141 -12.95079,11.29713 0,0 14.85325,-8.83802 14.85325,-8.83802 v 0 c -4.79161,4.23102 -9.58322,8.46205 -14.37484,12.69306 -1.70761,1.19793 -3.51388,2.18666 -5.36391,2.70536 -1.90974,0.26685 -3.84857,0.45534 -5.61457,1.72078 -2.11487,1.52631 -4.24708,2.99812 -6.43365,4.27342 -3.38294,1.70745 -6.67197,3.86999 -10.15018,5.08872 -4.85412,1.3199 -9.76993,2.00464 -14.70364,1.97443 0,0 12.8333,-14.25417 12.8333,-14.25417 z"
       inkscape:connector-curvature="0" />
    <text
       xml:space="preserve"
       style="font-style:normal;font-weight:normal;font-size:10.58333302px;line-height:1.25;font-family:sans-serif;letter-spacing:0px;word-spacing:0px;fill:#000000;fill-opacity:1;stroke:none;stroke-width:0.26458332"
       x="15.875"
       y="242.57143"
       id="text33"><tspan
         sodipodi:role="line"
         id="tspan31"
         x="15.875"
         y="251.9352"
         style="stroke-width:0.26458332"></tspan></text>
    <flowRoot
       xml:space="preserve"
       id="flowRoot41"
       style="font-style:normal;font-weight:normal;font-size:96px;line-height:1.25;font-family:sans-serif;letter-spacing:0px;word-spacing:0px;fill:#000000;fill-opacity:1;stroke:none"
       transform="scale(0.26458333)"><flowRegion
         id="flowRegion43"><rect
           id="rect45"
           width="60"
           height="188.57143"
           x="165.71428"
           y="785.37683" /></flowRegion><flowPara
         id="flowPara47"></flowPara></flowRoot>  </g>
</svg>
